<?xml version="1.0" standalone="no"?>
<!DOCTYPE svg PUBLIC "-//W3C//DTD SVG 1.1//EN" "http://www.w3.org/Graphics/SVG/1.1/DTD/svg11.dtd" >
<svg xmlns="http://www.w3.org/2000/svg">
<metadata>
This is a custom SVG webfont generated by Font Squirrel.
Copyright   : version 0505
</metadata>
<defs>
<font id="webfont815syuOe" horiz-adv-x="1024" >
<font-face units-per-em="2048" ascent="1538" descent="-510" />
<missing-glyph horiz-adv-x="512" />
<glyph unicode=" "  horiz-adv-x="512" />
<glyph unicode="&#x09;" horiz-adv-x="512" />
<glyph unicode="&#xa0;" horiz-adv-x="512" />
<glyph unicode="!" horiz-adv-x="681" d="M449 1317q0 -57 -19 -238q-70 -637 -76 -733h-26q-6 88 -20.5 227.5t-33.5 295.5l-24 210q-16 160 -17 238q0 59 27 97t80 38q109 0 109 -135zM451 82q0 -47 -36 -79t-77 -32q-45 0 -76 34t-31 77t33 77t74 34q47 0 80 -32t33 -79z" />
<glyph unicode="&#x22;" horiz-adv-x="669" d="M547 1339q0 -35 -2 -49l-53 -485l-29 -2l-45 487q-2 10 -2 37q0 104 67 105q64 -1 64 -93zM254 1339q0 -35 -2 -49l-53 -485l-29 -2l-45 487q-2 10 -2 37q0 104 67 105q64 -1 64 -93z" />
<glyph unicode="%" horiz-adv-x="1705" d="M1126.5 -33q-110.5 0 -173 81t-62.5 196q0 174 143.5 324.5t315.5 150.5q195 0 194 -209q0 -109 -53 -233.5t-153.5 -217t-211 -92.5zM348 -63h-80l891 1259l-14 14q-131 -61 -227 -61q-59 0 -134 29q-14 -174 -135 -356.5t-268 -182.5q-121 0 -185.5 80t-64.5 205 q0 170 144.5 319.5t314.5 149.5q154 0 188 -133q16 -66 154 -66q229 0 399 231h64zM1376 674q-129 0 -248.5 -197.5t-119.5 -326.5q0 -61 35.5 -105.5t97.5 -44.5q137 0 252.5 177t115.5 321q0 86 -24.5 131t-108.5 45zM672 1337q-80 29 -161 -24t-136.5 -145.5t-91 -188.5 t-35.5 -154q0 -68 37 -109.5t102 -41.5q92 0 180 97t136.5 221t44.5 212q-56 41 -76 133z" />
<glyph unicode="&#x26;" horiz-adv-x="1705" d="M1659 106q-98 -135 -225 -135q-100 0 -164 46t-137 151q-12 16 -54.5 76.5l-60.5 85.5q-10 -14 -52 -66l-63 -76q-96 -106 -192.5 -161.5t-225.5 -55.5q-162 0 -268 111t-106 276q0 178 104 296t295 206q-158 125 -158 227q0 133 148 248q123 96 231 97q98 0 174 -58.5 t76 -150.5q0 -123 -156 -224q-63 -43 -129 -79q74 -55 222 -203q78 -78 196 -221l143 194q104 141 105 199q0 70 -143 82v22h434v-22q-102 -12 -167 -57.5t-134 -139.5l-219 -303q66 -78 186 -256q59 -86 104 -126t97 -40q70 0 120 70zM872 1163q0 86 -64.5 150.5 t-148.5 64.5q-74 0 -128 -53t-54 -135q0 -70 72 -141q20 -20 63 -56.5t60 -52.5q200 98 200 223zM999 352q-82 119 -223 269q-33 35 -71.5 70.5t-90 78.5t-79.5 70q-272 -127 -273 -346q0 -178 90 -277.5t232 -99.5q125 0 219 59t196 176z" />
<glyph unicode="'" horiz-adv-x="376" d="M254 1339q0 -35 -2 -49l-53 -485l-29 -2l-45 487q-2 10 -2 37q0 104 67 105q64 -1 64 -93z" />
<glyph unicode="(" horiz-adv-x="653" d="M561 -293q-203 178 -320.5 400.5t-117.5 467.5q0 430 430 865l16 -17q-164 -186 -227 -383.5t-63 -466.5q0 -535 296 -854z" />
<glyph unicode=")" horiz-adv-x="653" d="M115 -297l-17 16q164 186 227.5 384t63.5 466q0 532 -297 854l14 13q201 -180 320 -402.5t119 -466.5q0 -430 -430 -864z" />
<glyph unicode="*" horiz-adv-x="860" d="M758 1219q0 -45 -76 -72l-225 -86l225 -88q76 -29 76 -74q0 -16 -8 -27q-12 -25 -39 -24q-37 0 -80 37l-189 153l37 -237q2 -14 2 -35q0 -74 -53 -74t-53 68q0 10 4 39l39 239l-191 -149q-43 -35 -80 -35q-27 0 -41 23q-6 12 -6 26q0 43 76 72l232 86l-228 88 q-76 29 -76 76q0 12 7 22q16 25 39 25q35 0 79 -37l191 -154l-37 240q-4 29 -4 37q0 72 55 72q53 0 53 -72q0 -8 -4 -37l-41 -240l191 152q45 35 76 35q29 0 43 -25q6 -12 6 -24z" />
<glyph unicode="," horiz-adv-x="446" d="M344 4q0 -180 -207 -323l-14 18q150 100 149 221q0 43 -24.5 62.5t-71.5 27.5q-94 16 -94 105q0 41 29.5 69.5t74.5 28.5q76 0 117 -62.5t41 -146.5z" />
<glyph unicode="-" horiz-adv-x="634" d="M563 455h-491v112h491v-112z" />
<glyph unicode="." horiz-adv-x="446" d="M334 94q0 -51 -36 -84t-77 -33q-47 0 -77.5 36t-30.5 81t32.5 82t73.5 37q47 0 81 -35t34 -84z" />
<glyph unicode="/" horiz-adv-x="569" d="M104 -215h-102l473 1657h103z" />
<glyph unicode="0" d="M942 678q0 -117 -23.5 -231.5t-71.5 -222t-139.5 -174t-211.5 -66.5q-109 0 -194 71.5t-130 182t-67.5 223t-22.5 217.5q0 106 25.5 223t75.5 227.5t138.5 182t200.5 71.5q68 0 138.5 -42t135 -122.5t105.5 -222t41 -317.5zM774 698q0 70 -3 134.5t-17.5 168t-39 178 t-74.5 130t-118 55.5q-88 0 -147.5 -78t-84 -199.5t-32.5 -212t-8 -176.5q0 -696 272 -696q82 0 137.5 85t78 217t29.5 222t7 172z" />
<glyph unicode="1" d="M776 0h-524v20q6 0 36.5 2.5t40 3.5t34 5t34 11t22.5 19.5t18 30t5 41.5v877q0 115 -41 148.5t-192 33.5v18q162 29 240.5 70t130.5 123h18v-1270q0 -70 28.5 -87t149.5 -26v-20z" />
<glyph unicode="2" d="M911 276l-133 -362h-12q-8 47 -32.5 66.5t-88.5 19.5h-526q14 211 227 459l236 276q141 164 141 326q0 100 -57.5 161.5t-157.5 61.5q-115 0 -198 -70.5t-165 -224.5l-18 10q180 383 457 383q137 0 219 -76.5t82 -205.5q0 -123 -117 -264q-76 -92 -219 -225.5 t-215 -221.5q-129 -158 -150 -254h475q94 0 142.5 32t89.5 118z" />
<glyph unicode="3" d="M883 436q0 -193 -136.5 -322.5t-328.5 -129.5q-80 0 -145.5 17t-101.5 41t-60.5 51.5t-32.5 47t-8 29.5q0 35 18 55.5t43 20.5q31 0 52.5 -24.5t49.5 -80.5q70 -133 195 -133q133 0 226.5 107.5t93.5 263.5q0 150 -112 229.5t-261 79.5h-13q104 84 168 154 q106 117 107 243q0 188 -186 189q-82 0 -147.5 -39t-139.5 -133l-17 18q104 135 194.5 198.5t193.5 63.5q117 0 177 -62.5t60 -139.5q0 -168 -246 -385q160 -23 258.5 -118.5t98.5 -240.5z" />
<glyph unicode="4" d="M956 412h-202v-412h-156v412h-563v73l639 916h80v-881h202v-108zM598 520v705h-4l-492 -705h496z" />
<glyph unicode="5" d="M862 434q0 -57 -14 -115.5t-49 -120t-88.5 -108.5t-139.5 -76.5t-192 -29.5q-154 0 -230.5 48t-76.5 103q0 70 71 70q6 0 12.5 -1t11.5 -5l9 -8q4 -3 10.5 -9t9.5 -10t9 -14l9 -16q3 -5 9 -17t10 -19q59 -102 177 -102q147 0 235 110.5t88 258.5q0 92 -29.5 161.5 t-76.5 110.5t-120 66.5t-144.5 35t-161.5 11.5l63 604h393q109 0 138 47h18l-78 -184h-459l-30 -318q135 -4 238.5 -28.5t192.5 -75.5t137 -144.5t48 -224.5z" />
<glyph unicode="6" d="M954 422q0 -188 -128 -313t-312 -125q-141 0 -240.5 88t-140.5 211t-41 266q0 307 191.5 538.5t492.5 311.5l4 -21q-446 -162 -516 -741h4q86 188 310 188q162 0 269 -117.5t107 -285.5zM793 403q0 389 -267 390q-119 0 -195.5 -97.5t-76.5 -259.5q0 -432 264 -432 q98 0 162.5 68.5t88.5 153.5t24 177z" />
<glyph unicode="7" d="M903 1339l-471 -1286q-18 -53 -36.5 -71.5t-67.5 -18.5q-72 0 -72 37q0 14 125 279l446 948h-563q-45 0 -68.5 -19.5t-41.5 -66.5l-27 -70h-25l117 348h14q2 -33 37 -45t131 -12h502v-23z" />
<glyph unicode="8" d="M926 373q0 -166 -122 -277.5t-310 -111.5q-152 0 -273 96t-121 244q0 133 79 220t227 158q-133 70 -199 149t-66 198q0 131 106.5 232t274.5 101q186 0 277.5 -85t91.5 -199q0 -102 -75 -186.5t-216 -141.5q170 -80 248 -161.5t78 -235.5zM776 1104q0 113 -67.5 184.5 t-182.5 71.5q-125 0 -194.5 -69.5t-69.5 -186.5q0 -160 205 -266l53 -27l58 -29q198 113 198 322zM813 315q0 117 -65.5 185.5t-188.5 126.5l-133 63q-111 -76 -159 -161t-48 -205q0 -147 82 -231.5t215 -84.5q131 0 214 88t83 219z" />
<glyph unicode="9" d="M936 815q0 -307 -194.5 -543.5t-491.5 -310.5l-4 21q233 80 369.5 277.5t150.5 485.5h-4q-37 -94 -120 -149t-193 -55q-162 0 -270.5 114.5t-108.5 294.5q0 184 126 308t312 124q207 0 317.5 -152.5t110.5 -414.5zM774 938q0 100 -22.5 191.5t-85 162t-154.5 70.5 q-139 0 -210 -119t-71 -278q0 -102 22.5 -182.5t89.5 -138.5t169 -58q111 0 186.5 96t75.5 256z" />
<glyph unicode=":" horiz-adv-x="446" d="M334 766q0 -51 -36 -84t-77 -33q-47 0 -77.5 36t-30.5 81t32.5 82t73.5 37q47 0 81 -35t34 -84zM334 94q0 -51 -36 -84t-77 -33q-47 0 -77.5 36t-30.5 81t32.5 82t73.5 37q47 0 81 -35t34 -84z" />
<glyph unicode=";" horiz-adv-x="446" d="M324 766q0 -51 -36 -84t-77 -33q-45 0 -76 37t-31 80q0 47 33 83t74 36q47 0 80 -35t33 -84zM344 4q0 -180 -207 -323l-14 18q150 100 149 221q0 43 -24.5 62.5t-71.5 27.5q-94 16 -94 105q0 41 29.5 69.5t74.5 28.5q76 0 117 -62.5t41 -146.5z" />
<glyph unicode="?" horiz-adv-x="700" d="M647 1032q0 -164 -85 -239.5t-269 -83.5l-21 -363h-32l-15 494q49 0 81 1t84 7t86 20.5t68 37t51 60.5t17 89q0 100 -76.5 157.5t-195.5 63.5q-82 4 -112.5 23.5t-30.5 58.5q0 78 88 78q135 0 248.5 -117t113.5 -287zM369 82q0 -47 -36 -79t-77 -32q-45 0 -75.5 34 t-30.5 77t32.5 77t73.5 34q47 0 80 -32t33 -79z" />
<glyph unicode="A" horiz-adv-x="1341" d="M1333 0h-514v20q172 0 172 97q0 43 -61 200l-86 228h-498l-82 -221q-59 -158 -59 -205q0 -78 117 -92q4 0 21 -2t24 -5v-20h-351v20q55 12 89 50.5t67 124.5l395 1044l-35 57q72 45 140 146l481 -1221q29 -72 44 -102.5t50 -60t86 -38.5v-20zM829 580l-241 618l-230 -618 h471z" />
<glyph unicode="B" horiz-adv-x="1288" d="M1161 383q0 -199 -160.5 -295t-435.5 -96q-80 0 -223 4t-219 4v20q82 4 116.5 26t34.5 77v1157q0 70 -29.5 89.5t-121.5 23.5v20q72 2 206 3t208 1h45q215 0 340 -63q70 -35 112.5 -109t42.5 -155q0 -125 -74.5 -215.5t-222.5 -124.5v-5q170 -16 275.5 -114t105.5 -248z M901 1071q0 229 -182 295q-70 27 -260 27h-19v-648h107q154 0 254 80t100 246zM977 373q0 92 -25.5 156.5t-62.5 99.5t-100.5 54t-118 23.5t-133.5 4.5h-97v-557q0 -82 45 -110t133 -28q172 0 265.5 92.5t93.5 264.5z" />
<glyph unicode="C" horiz-adv-x="1478" d="M1341 20h-20l-57 115q-207 -164 -471 -164q-322 0 -507.5 193.5t-185.5 527.5q0 319 199 529.5t512 210.5q242 0 444 -160l64 98h16v-459h-18q-35 215 -166 354.5t-340 139.5q-248 0 -388 -212t-140 -513q0 -172 59 -324.5t180 -254t277 -101.5q209 0 345 127t179 334h18 v-441z" />
<glyph unicode="D" horiz-adv-x="1650" d="M1550 696q0 -147 -46 -270t-144 -223.5t-272.5 -157.5t-411.5 -57q-92 0 -261 6t-259 6h-29v20q76 0 111.5 26t35.5 104v1114q0 74 -40.5 100.5t-110.5 28.5v20q90 0 285.5 6t310.5 6q229 0 397 -59t259 -163.5t133 -229.5t42 -277zM1362 676q0 350 -174 536.5 t-518 186.5q-125 0 -177.5 -32t-52.5 -136v-1034q0 -98 60.5 -138.5t208.5 -42.5h10q293 0 468 180.5t175 479.5z" />
<glyph unicode="E" horiz-adv-x="1349" d="M1280 354l-88 -354h-1063v20q80 0 120 26t40 104v1114q0 78 -44 103.5t-122 25.5v20h997l92 -311l-18 -6l-84 125q-68 96 -147.5 128.5t-186.5 32.5h-321v-651h143q180 0 238.5 37t85.5 190h16v-503h-16q-20 154 -73.5 197.5t-223.5 43.5h-170v-553q0 -70 40 -91t111 -21 h230q84 0 138 18.5t113 75.5q84 84 179 235z" />
<glyph unicode="F" horiz-adv-x="1228" d="M1214 1106l-16 -6q-80 113 -137 178q-51 61 -117.5 82.5t-198.5 21.5h-301v-649h164q170 0 221.5 41t75.5 191h19v-521h-19q-16 156 -68.5 205t-228.5 49h-164v-569q0 -55 44 -79.5t147 -29.5v-20h-508v20q80 0 116 25t36 105v1114q0 78 -40 103.5t-116 25.5v20h997z" />
<glyph unicode="G" horiz-adv-x="1531" d="M1475 629q-88 -8 -119 -35t-31 -90v-361q-301 -172 -545 -172q-129 0 -247.5 42t-217 125t-157 221.5t-58.5 316.5q0 348 206 552t493 204q143 0 241.5 -31t206.5 -107l68 95h16l12 -408h-18q-150 422 -510 422q-100 0 -192.5 -46t-170 -132t-123.5 -228.5t-46 -320.5 q0 -319 145 -497.5t367 -178.5q152 0 258 71.5t106 225.5v195q0 76 -39 102.5t-147 34.5v22h502v-22z" />
<glyph unicode="H" horiz-adv-x="1662" d="M1540 1393q-74 0 -116 -26t-42 -101v-1119q0 -78 37 -102.5t117 -24.5v-20h-500v20q88 0 134.5 25t46.5 102v551h-771v-551q0 -80 38 -103.5t134 -23.5v-20h-495v20q74 0 116 26t42 101v1119q0 74 -41 99.5t-111 27.5v20h512v-20q-98 0 -146.5 -25t-48.5 -102v-533h771 v533q0 78 -46.5 102.5t-134.5 24.5v20h504v-20z" />
<glyph unicode="I" horiz-adv-x="753" d="M647 0h-543v20q92 0 139.5 26t47.5 104v1114q0 78 -47 103.5t-140 25.5v20h543v-20q-96 0 -143 -25t-47 -104v-1114q0 -78 47 -104t143 -26v-20z" />
<glyph unicode="J" horiz-adv-x="868" d="M776 1393q-96 -2 -128 -35t-32 -113v-661q0 -166 -30.5 -286t-70.5 -179.5t-97.5 -93t-90 -38.5t-71.5 -5q-74 0 -113 34.5t-39 87.5q0 45 26 71t58 26q80 0 105 -107q14 -63 69 -63q37 0 63 47t26 149v990q0 109 -36 140.5t-145 35.5v20h506v-20z" />
<glyph unicode="K" horiz-adv-x="1388" d="M1382 0h-301l-557 702l-84 -92v-460q0 -78 45 -104t127 -26v-20h-485v20q76 0 111.5 26t35.5 104v1114q0 74 -40.5 100.5t-110.5 28.5v20h479v-20q-78 0 -120 -26t-42 -103v-611l463 504q90 96 90 150q0 80 -151 86v20h463v-20q-147 -4 -301 -170l-363 -398l604 -749 q45 -55 137 -56v-20z" />
<glyph unicode="L" horiz-adv-x="1368" d="M1366 442l-109 -442h-1134v20q88 0 125 25t37 105v1114q0 76 -42 102.5t-116 26.5v20h518v-20q-102 -2 -148 -36t-46 -114v-1046q0 -121 49 -149t211 -28q231 0 325 34t174 161q90 143 138 227h18z" />
<glyph unicode="M" horiz-adv-x="1882" d="M1761 0h-491v20q104 8 139 33t35 97v1101h-4l-549 -1251h-25l-573 1243h-4v-1093q0 -125 188 -130v-20h-403v20q90 0 136 26t46 104v1132q0 47 -26.5 72.5t-54.5 31t-81 7.5v20h301l547 -1198l528 1198h291v-20q-84 -6 -117.5 -35t-33.5 -113v-1095q0 -78 36.5 -104 t114.5 -26v-20z" />
<glyph unicode="N" horiz-adv-x="1677" d="M1604 1393q-186 -10 -187 -144v-1265h-16l-1112 1243v-1077q0 -121 188 -130v-20h-403v20q96 6 138 33t42 101v1110q-70 76 -86 88q-47 35 -92 41v20h282l1024 -1157v991q0 80 -41 107.5t-139 38.5v20h402v-20z" />
<glyph unicode="O" horiz-adv-x="1593" d="M1493 690q0 -80 -17.5 -166t-66.5 -188.5t-125 -180t-207 -131t-299 -53.5q-154 0 -276.5 50.5t-196.5 126t-122 175t-65.5 187.5t-17.5 172q0 176 53.5 314.5t131 217t176 131t178.5 70t149 17.5q131 0 254 -45.5t225.5 -133.5t164 -233.5t61.5 -329.5zM1311 692 q0 184 -52.5 328.5t-133.5 224.5t-163.5 120t-158.5 40q-211 0 -365.5 -187.5t-154.5 -543.5q0 -283 135 -479.5t360 -196.5q129 0 234.5 64.5t169 168t96.5 222t33 239.5z" />
<glyph unicode="P" horiz-adv-x="1224" d="M1157 1012q0 -104 -47 -185.5t-126 -126.5t-170 -67.5t-189 -22.5h-185v-463q0 -78 46 -102.5t135 -24.5v-20h-494v20q84 0 115.5 24t31.5 103v1117q0 80 -35.5 104.5t-115.5 24.5v20q188 4 549 4q213 0 349 -100t136 -305zM981 1028q0 170 -83 266.5t-253 96.5 q-121 0 -163 -26t-42 -103v-621h88q121 0 197 13.5t138.5 52t90 117.5t27.5 204z" />
<glyph unicode="Q" horiz-adv-x="1593" d="M1493 690q0 -78 -16.5 -164t-65.5 -186t-123 -179t-200.5 -133.5t-288.5 -56.5l-242 -112v-2q66 12 117 12q63 0 197.5 -34t201.5 -34q209 0 268 164h19q-16 -133 -116.5 -225t-242.5 -92q-66 0 -136 21.5t-104 39l-104 55.5q-102 55 -147 56q-80 0 -80 -90 q0 -33 -14.5 -52.5t-30.5 -19.5q-51 0 -51 59q0 68 98 111l318 143q-147 4 -265 56.5t-188 129t-116 174t-63.5 183.5t-17.5 168q0 176 53.5 314.5t131 217t176 131t178.5 70t149 17.5q131 0 254 -45.5t225.5 -133.5t164 -233.5t61.5 -329.5zM1311 692q0 184 -52.5 328.5 t-133.5 224.5t-163.5 120t-158.5 40q-211 0 -365.5 -187.5t-154.5 -543.5q0 -283 135 -479.5t360 -196.5q129 0 234.5 64.5t169 168t96.5 222t33 239.5z" />
<glyph unicode="R" horiz-adv-x="1398" d="M1389 0h-316q-16 27 -73 131l-94 170q-38 66 -94 145.5t-101 120.5q-80 74 -271 74v-491q0 -80 39 -103.5t135 -23.5v-23h-491v23q88 0 119.5 23.5t31.5 103.5v1114q0 78 -33.5 102.5t-109.5 24.5v22q88 0 262 4t266 4q209 0 354.5 -92t145.5 -289q0 -272 -330 -374 q41 -29 93.5 -95.5t89.5 -126.5l96 -159l84 -140q74 -121 197 -122v-23zM979 1042q0 164 -102.5 257.5t-270.5 93.5q-88 0 -127 -27t-39 -109v-583q102 0 195 6q164 12 254 106t90 256z" />
<glyph unicode="S" horiz-adv-x="1165" d="M1044 360q0 -72 -26.5 -138t-82.5 -123.5t-155.5 -92.5t-230.5 -35q-170 0 -338 109l-68 -80h-10v414h14q27 -201 136.5 -306.5t267.5 -105.5q164 0 255 84t91 219q0 121 -79 187.5t-265 121.5q-193 55 -288 153.5t-95 266.5q0 164 121 281t311 117q195 0 326 -123l65 59 h15v-405h-19q-51 225 -133 327q-86 106 -240 107q-147 0 -228 -89t-81 -229q0 -113 64.5 -180.5t224.5 -110.5q213 -59 330.5 -154.5t117.5 -273.5z" />
<glyph unicode="T" horiz-adv-x="1447" d="M1440 1073l-13 -6l-64 109.5t-71 115.5q-33 49 -65.5 69.5t-89.5 20.5h-324v-1232q0 -72 41 -98.5t150 -31.5v-20h-543v20q102 4 144 32t42 98v1232h-325q-57 0 -90 -21.5t-68 -68.5q-29 -41 -144 -223l-12 6l72 369q100 -31 170 -31h958q70 0 170 31z" />
<glyph unicode="U" horiz-adv-x="1556" d="M1464 1393q-174 -4 -174 -172v-756q0 -86 -13 -154.5t-48 -134t-91.5 -108.5t-148.5 -70t-215 -27q-516 0 -516 471v779q0 106 -25.5 137t-121.5 35v20h493v-20q-106 0 -143 -40t-37 -132v-834q0 -51 7 -97t32.5 -100.5t66.5 -93.5t116 -64.5t175 -25.5q434 0 434 459 v756q0 102 -48 133.5t-165 38.5v20h422v-20z" />
<glyph unicode="V" horiz-adv-x="1333" d="M1327 1393q-33 -8 -56.5 -24.5t-48 -58.5t-39 -76t-46.5 -118l-455 -1155h-12l-437 1139q-70 180 -107.5 231t-109.5 62v20h504v-20q-176 -12 -176 -88q0 -27 43 -142l352 -934h6l322 820q74 184 74 243q0 84 -142 97q-33 4 -45 4v20h373v-20z" />
<glyph unicode="W" horiz-adv-x="1898" d="M1888 1393q-68 -20 -104.5 -76.5t-93.5 -235.5l-363 -1110h-20l-318 971h-4l-354 -971h-21l-422 1225q-33 98 -67.5 142t-100.5 55v20h463v-20q-82 -4 -117.5 -19.5t-35.5 -50.5q0 -16 14 -63l340 -1012h4l279 758l-70 208q-35 102 -73 139.5t-119 39.5v20h516v-20 q-100 -6 -135 -30t-35 -73q0 -39 26 -114l299 -908h4l256 766q66 197 66 271q0 47 -38 65.5t-132 22.5v20h356v-20z" />
<glyph unicode="X" horiz-adv-x="1415" d="M1407 0h-565v20q6 0 24.5 1.5l30.5 2.5t31.5 4t32 8t25.5 12t19.5 17.5t6.5 24.5q0 45 -39 98l-314 457q-20 -29 -95 -124l-113 -148q-156 -207 -156 -267q0 -16 6 -28t20.5 -20.5t26.5 -14.5t35 -10t33 -6t33.5 -4.5t25.5 -2.5v-20h-463v20q72 8 112 31t87 82l428 543 l-346 504q-88 129 -144.5 169t-140.5 44v20h590v-20q-176 -6 -176 -74q0 -37 74 -145l252 -371l202 252q147 182 148 248q0 45 -35 63t-127 27v20h463v-20q-92 -10 -144.5 -48t-138.5 -143l-346 -428l350 -512q96 -139 147.5 -184t139.5 -58v-20z" />
<glyph unicode="Y" horiz-adv-x="1206" d="M1202 1393q-55 -6 -87 -41t-87 -127l-336 -576v-499q0 -76 43 -103t117 -27v-20h-477v20q33 0 56.5 5.5t47 18.5t35.5 40t12 66v491l-327 573q-51 90 -91 132.5t-98 46.5v20h482v-20q-88 0 -119 -19.5t-31 -56.5q0 -33 74 -160l262 -452l231 395q94 162 95 217 q0 76 -121 76v20h319v-20z" />
<glyph unicode="Z" horiz-adv-x="1302" d="M1264 410l-136 -410h-1118l975 1382h-369q-129 0 -200.5 -25.5t-141.5 -105.5q-90 -104 -165 -207l-17 13l129 356h987l-975 -1382h451q172 0 248 32.5t153 129.5q53 68 158 221z" />
<glyph unicode="`" horiz-adv-x="569" d="M469 1004l-6 -13l-369 205q-53 29 -53 76q0 29 17.5 48t45.5 19q39 0 70 -34z" />
<glyph unicode="a" horiz-adv-x="880" d="M848 123q-16 -145 -143 -146q-55 0 -95.5 40t-40.5 110l-42 -33l-35 -28q-113 -88 -222 -89q-70 0 -121 50.5t-51 122.5q0 139 170 237q43 25 94.5 47.5t114.5 45.5l90 34v231q0 117 -133 117q-61 0 -123.5 -31.5t-62.5 -74.5q0 -6 1 -20.5t1 -26.5q0 -66 -20.5 -97.5 t-77.5 -31.5q-25 0 -40.5 19t-15.5 44q0 61 72 123q70 59 170 100t186 41q90 0 138.5 -51t48.5 -143v-563q0 -106 55 -107q47 0 59 80h23zM567 158v329q-4 -2 -85 -34.5t-124 -55.5q-72 -39 -102.5 -76.5t-30.5 -95.5q0 -68 37 -112.5t109 -44.5q83 0 196 90z" />
<glyph unicode="b" horiz-adv-x="1105" d="M1022 467q0 -41 -6 -89t-33 -124t-73 -133.5t-137 -100.5t-212 -43q-150 0 -268 52q-33 14 -53 14q-37 0 -45 -59h-15v1226q0 49 -22.5 67.5t-87.5 33.5v14l260 105v-660q152 137 327 137q166 0 265.5 -132t99.5 -308zM866 436q0 164 -72.5 286t-226 122t-237.5 -119 v-467q0 -135 62.5 -197.5t164.5 -62.5q111 0 183.5 72.5t99 167t26.5 198.5z" />
<glyph unicode="c" horiz-adv-x="899" d="M854 262q-123 -285 -373 -285q-178 0 -290.5 124t-112.5 335q0 197 128 334t304 137q125 0 226.5 -59.5t101.5 -147.5q0 -80 -70 -79q-18 0 -32.5 7t-22.5 23.5l-13.5 28.5t-10.5 34.5t-7 30.5q-12 41 -26.5 69t-51.5 51.5t-92 23.5q-127 0 -199.5 -117t-72.5 -295 q0 -162 78.5 -283.5t230.5 -121.5q92 0 169 55t120 141z" />
<glyph unicode="d" horiz-adv-x="1083" d="M1026 55l-260 -75v139h-4q-115 -139 -289 -139q-182 0 -288.5 133t-106.5 319q0 209 118.5 342t325.5 133q139 0 244 -65v327q0 70 -28.5 98.5t-102.5 39.5v14l280 109v-1250q0 -55 25 -78.5t86 -35.5v-11zM766 154v424q0 90 -26.5 155.5t-67.5 97t-80 46t-76 14.5 q-76 0 -133 -40t-88 -105.5t-45 -134t-14 -138.5q0 -123 33.5 -212t87 -131t99.5 -60.5t85 -18.5q133 1 225 103z" />
<glyph unicode="e" horiz-adv-x="964" d="M924 307q-53 -152 -159 -239.5t-253 -87.5q-199 0 -316.5 128t-117.5 334q0 188 126 326.5t312 138.5q152 0 258.5 -81t138.5 -222h-673q-10 -66 -11 -121q0 -178 96.5 -280.5t256.5 -102.5q106 0 193 58.5t130 152.5zM715 627q-4 115 -59.5 188.5t-159.5 73.5 q-92 0 -160 -79t-88 -183h467z" />
<glyph unicode="f" horiz-adv-x="557" d="M764 1282q0 -78 -72 -78q-33 0 -49 20.5t-41 71.5q-41 96 -123 97q-70 0 -103.5 -62.5t-33.5 -152.5v-293h225q-16 -25 -26 -70h-199v-674q0 -76 26.5 -96t129.5 -25v-20h-439v20q86 4 110 25t24 96v674h-146l21 70h125v69q0 121 28.5 212t67.5 140.5t93 79t94 38t79 8.5 q100 0 154.5 -46.5t54.5 -103.5z" />
<glyph unicode="g" horiz-adv-x="954" d="M950 827q0 -27 -15 -43t-42 -16t-70 39q-20 16 -49 16q-33 0 -55 -20q70 -74 69 -182q0 -143 -97 -225.5t-242 -82.5q-78 0 -148 27q-100 -55 -100 -129q0 -39 17.5 -62.5t50 -34t60 -13.5t66.5 -3h15h24q20 0 62.5 1t62.5 1q180 0 278.5 -64.5t98.5 -191.5 q0 -145 -130 -214.5t-325 -69.5q-188 0 -309 58t-121 157q0 141 187 211q-117 55 -117 166q0 66 38 110.5t124 85.5q-158 84 -158 268q0 127 95 209t224 82q160 0 261 -88q100 82 172 82q33 0 53 -20.5t20 -53.5zM643 608q0 129 -48 206t-138 77q-94 0 -139.5 -83 t-45.5 -204t47.5 -195.5t135.5 -74.5q90 0 139 77.5t49 196.5zM838 -199q0 88 -66.5 119t-196.5 31q-219 0 -317 26q-41 -16 -73.5 -67t-32.5 -100q0 -68 29.5 -116t80.5 -71.5t105.5 -34t117.5 -10.5q160 0 256.5 56t96.5 167z" />
<glyph unicode="h" horiz-adv-x="1089" d="M1028 0h-377v20q72 4 91.5 26t19.5 95v424q0 268 -195 269q-51 0 -96 -21.5t-68.5 -43t-62.5 -64.5v-564q0 -74 21.5 -95t91.5 -26v-20h-381v20q76 4 97 25t21 96v1080q0 76 -104 100v8l254 101v-682q78 78 143.5 118.5t153.5 40.5q139 0 206.5 -87t67.5 -234v-445 q0 -76 19.5 -95t97.5 -26v-20z" />
<glyph unicode="i" horiz-adv-x="534" d="M350 1333q0 -39 -26.5 -70.5t-65.5 -31.5q-41 0 -70.5 30.5t-29.5 71.5q0 39 29.5 69t70.5 30q37 0 64.5 -31t27.5 -68zM455 0h-381v20q76 4 97.5 25t21.5 96v502q0 82 -21.5 115t-89.5 41v10q147 43 260 100v-768q0 -74 21.5 -95t91.5 -26v-20z" />
<glyph unicode="j" horiz-adv-x="522" d="M348 1333q0 -41 -28.5 -71.5t-67.5 -30.5t-67.5 30.5t-28.5 71.5q0 39 28.5 69t67.5 30t67.5 -30t28.5 -69zM342 -55q0 -147 -73.5 -267t-209.5 -120q-63 0 -100 32.5t-37 77.5q0 29 17.5 47.5t46.5 18.5q39 0 75 -72q33 -63 74 -63q23 0 40.5 22.5t17.5 54.5v973 q0 74 -23 104.5t-86 47.5v10q121 33 258 100v-966z" />
<glyph unicode="k" horiz-adv-x="1095" d="M1096 0h-461v20q61 2 84.5 11.5t23.5 34.5q0 27 -63 110l-254 336l-92 -70v-301q0 -76 21.5 -96t93.5 -25v-20h-383v20q76 4 97 25t21 96v1067q0 51 -23.5 75t-76.5 36v6q45 16 129 53t121 52v-945l241 172q127 92 127 144q0 57 -163 63v21h446v-21q-63 -8 -117.5 -38.5 t-187.5 -127.5l-139 -102l342 -432q66 -84 108.5 -112.5t104.5 -31.5v-20z" />
<glyph unicode="l" horiz-adv-x="512" d="M446 0h-380v20q76 4 97 25t21 96v1016q0 92 -23.5 129t-92.5 41v14q45 10 90 24.5t96 34.5l80 30v-1289q0 -74 21.5 -95t90.5 -26v-20z" />
<glyph unicode="m" horiz-adv-x="1689" d="M1632 0h-399v20q78 4 102.5 29t24.5 103v434q0 109 -56.5 173t-166.5 64q-72 0 -144.5 -51t-72.5 -110v-510q0 -74 30.5 -99.5t93.5 -32.5v-20h-401v20q80 4 103.5 29t23.5 105v444q0 225 -201 225q-96 0 -164.5 -52t-68.5 -89v-530q0 -74 29.5 -99.5t91.5 -32.5v-20 h-385v20q68 4 91 29t23 103v524q0 100 -100 123v12q94 18 250 96v-170q76 86 144.5 128t164.5 42q90 0 158.5 -49t107.5 -133q147 182 299 182q131 0 215 -104.5t84 -224.5v-426q0 -82 18.5 -104.5t104.5 -27.5v-20z" />
<glyph unicode="n" horiz-adv-x="1105" d="M1049 0h-394v20q76 4 97.5 25t21.5 96v463q0 104 -55 163.5t-156 59.5q-76 0 -149.5 -51t-73.5 -117v-518q0 -76 21.5 -96t93.5 -25v-20h-383v20q76 4 97 25t21 96v521q0 61 -23.5 93.5t-76.5 43.5v12q109 20 250 96v-166q131 166 297 166q121 0 204 -76.5t83 -191.5 v-498q0 -70 27.5 -92t97.5 -29v-20z" />
<glyph unicode="o" d="M946 442.5q0 -198.5 -119.5 -332t-314.5 -133.5t-314.5 133.5t-119.5 332t119.5 331.5t314.5 133t314.5 -133t119.5 -331.5zM782 446.5q0 110.5 -26.5 208t-90 167t-153.5 69.5t-153.5 -69.5t-90 -167t-26.5 -208t26.5 -210t90 -170t153.5 -70.5t153.5 70.5t90 170 t26.5 210z" />
<glyph unicode="p" horiz-adv-x="1095" d="M1018 467q0 -98 -25.5 -182t-79 -155t-150.5 -112t-226 -41q-115 0 -203 48v-330q0 -68 30.5 -89.5t124.5 -25.5v-20h-423v20q70 6 94 23.5t24 70.5v983q0 70 -20.5 96.5t-85.5 43.5v12q125 33 256 98v-100q90 57 149.5 78.5t145.5 21.5q184 0 286.5 -127t102.5 -313z M862 410q0 186 -87 310t-259 124q-94 0 -182 -66v-332q0 -96 2 -150t14 -118.5t37 -97.5t70 -55.5t110 -22.5q133 0 214 118t81 290z" />
<glyph unicode="q" horiz-adv-x="1099" d="M1044 -440h-413v20q80 4 110.5 22.5t30.5 71.5v424q-133 -117 -283 -116q-188 0 -299.5 124.5t-111.5 319.5q0 217 133 349t348 132q78 0 156 -20q98 -25 114 -25q41 0 82 58h11v-1246q0 -53 22.5 -72.5t99.5 -21.5v-20zM772 193v528q0 84 -67.5 127t-145.5 43 q-137 0 -230 -116t-93 -355q0 -154 76.5 -273.5t224.5 -119.5q102 0 168.5 51.5t66.5 114.5z" />
<glyph unicode="r" horiz-adv-x="655" d="M645 831q0 -31 -20.5 -51t-51.5 -20q-20 0 -45 12q-35 23 -75 23q-39 0 -78 -35t-39 -62v-557q0 -76 22.5 -96t108.5 -25v-20h-395v20q74 4 94 27t20 94v531q0 61 -16 80.5t-78 44.5v12q125 43 240 102v-157q68 88 118 128t99 40q96 -1 96 -91z" />
<glyph unicode="s" horiz-adv-x="768" d="M680 252q0 -131 -95.5 -203t-228.5 -72q-143 0 -256 64v225h15q16 -61 30.5 -100t41 -82t67.5 -64.5t98 -21.5q90 0 137.5 53t47.5 146q0 74 -49.5 119.5t-174.5 105.5q-111 53 -160 105.5t-49 148.5q0 109 81 170t190 61q88 0 262 -63v-201h-16q-20 109 -86 177.5 t-166 68.5q-61 0 -105.5 -39t-44.5 -117q0 -92 150 -162q174 -82 242.5 -146t68.5 -173z" />
<glyph unicode="t" horiz-adv-x="647" d="M643 129q-66 -80 -127 -116t-141 -36q-102 0 -152.5 67t-50.5 173v598h-106v8q162 125 251 224v-162h295q-31 -41 -39 -70h-256v-573q0 -88 34 -130t114 -42q90 0 166 71z" />
<glyph unicode="u" horiz-adv-x="1097" d="M1026 63l-258 -83v153q-129 -156 -311 -156q-145 0 -206 66t-61 186v566q0 39 -23.5 53t-96.5 16v21h270v-670q0 -180 192 -180q109 0 172.5 70.5t63.5 150.5v535q0 39 -24.5 55t-94.5 18v21h269v-709q0 -53 25.5 -74.5t82.5 -21.5v-17z" />
<glyph unicode="v" horiz-adv-x="972" d="M967 864q-92 -2 -146 -123l-338 -764h-26l-297 762q-27 68 -52.5 94.5t-91.5 30.5v21h420v-21h-2q-131 0 -131 -63q0 -20 27 -94l202 -533l238 543q23 49 23 84q0 57 -101 63h-12h-18v21h305v-21z" />
<glyph unicode="w" horiz-adv-x="1433" d="M1430 864q-55 -2 -89 -32.5t-63 -102.5l-293 -752h-29l-219 644l-260 -644h-28l-306 787q-25 63 -51 81.5t-76 18.5v21h412v-21q-135 -2 -135 -61q0 -12 8 -37l219 -590l201 494l-33 90q-37 102 -115 104v21h390v-21q-127 0 -127 -67q0 -25 10 -54l188 -555l176 469 q41 113 41 144q0 63 -112 63v21h291v-21z" />
<glyph unicode="x" horiz-adv-x="989" d="M979 0h-457v20q137 0 137 60q0 31 -112 186l-98 135l-138 -184q-80 -106 -80 -147q0 -49 136 -50v-20h-357v20q68 0 107 24t90 91l225 289l-276 373q-29 37 -55.5 52t-75.5 15v21h403v-21q-94 -2 -94 -39q0 -27 86 -143l106 -150l123 164q57 76 58 115q0 51 -125 53v21 h348v-21q-78 -2 -115 -24.5t-92 -94.5l-178 -235l256 -356q53 -76 91 -105t87 -29v-20z" />
<glyph unicode="y" horiz-adv-x="993" d="M977 864q-66 -2 -100.5 -32.5t-61.5 -112.5l-323 -946q-41 -119 -79 -164t-102 -45q-29 0 -54.5 19.5t-25.5 54t19.5 56t52.5 21.5q12 0 38 -6t36 -6q63 0 90 80l74 217l-404 748q-39 72 -65.5 94t-67.5 22v21h432v-21q-150 0 -149 -65q0 -27 22 -70l293 -553l162 488 q25 78 24 120q0 74 -145 80v21h334v-21z" />
<glyph unicode="z" horiz-adv-x="880" d="M844 270l-60 -270h-735l584 864h-293q-94 0 -144.5 -39t-123.5 -174l-13 6l62 228h686l-586 -865h166q193 0 257.5 24t119.5 114l34 60l31 56z" />
<glyph unicode="&#xa4;" d="M938 31l-31 92q-131 -133 -293 -133q-186 0 -302.5 155.5t-137.5 436.5h-143v49h139v45q0 25 4 119h-143v49h149q37 246 158 392t287 146q145 0 278 -131l29 80h20v-387h-20q-16 156 -100 288t-207 132q-225 0 -279 -520h389v-49h-393q-4 -115 -4 -131v-33h397v-49h-393 q8 -92 24.5 -179.5t47 -182.5t85 -153.5t126.5 -58.5q111 0 192.5 103.5t114.5 289.5h24v-370h-18z" />
<glyph unicode="&#xa8;" horiz-adv-x="569" d="M575 1143q0 -37 -28.5 -65.5t-67.5 -28.5t-66.5 28.5t-27.5 65.5q0 35 28.5 64.5t65.5 29.5t66.5 -29.5t29.5 -64.5zM184 1143q0 -37 -28.5 -65.5t-67.5 -28.5q-37 0 -65.5 28.5t-28.5 65.5q0 35 28.5 64.5t65.5 29.5t66.5 -29.5t29.5 -64.5z" />
<glyph unicode="&#xaa;" horiz-adv-x="880" d="M848 123q-16 -145 -143 -146q-55 0 -95.5 40t-40.5 110l-42 -33l-35 -28q-113 -88 -222 -89q-70 0 -121 50.5t-51 122.5q0 139 170 237q43 25 94.5 47.5t114.5 45.5l90 34v231q0 117 -133 117q-61 0 -123.5 -31.5t-62.5 -74.5q0 -6 1 -20.5t1 -26.5q0 -66 -20.5 -97.5 t-77.5 -31.5q-25 0 -40.5 19t-15.5 44q0 61 72 123q70 59 170 100t186 41q90 0 138.5 -51t48.5 -143v-563q0 -106 55 -107q47 0 59 80h23zM567 158v329q-4 -2 -85 -34.5t-124 -55.5q-72 -39 -102.5 -76.5t-30.5 -95.5q0 -68 37 -112.5t109 -44.5q83 0 196 90z" />
<glyph unicode="&#xad;" horiz-adv-x="634" d="M563 455h-491v112h491v-112z" />
<glyph unicode="&#xaf;" horiz-adv-x="2048" />
<glyph unicode="&#xfffd;" horiz-adv-x="2048" />
<glyph unicode="&#x2030;" horiz-adv-x="2048" />
<glyph unicode="&#x2026;" horiz-adv-x="2048" />
<glyph unicode="&#x192;" horiz-adv-x="2048" />
<glyph unicode="&#xb2;" d="M911 276l-133 -362h-12q-8 47 -32.5 66.5t-88.5 19.5h-526q14 211 227 459l236 276q141 164 141 326q0 100 -57.5 161.5t-157.5 61.5q-115 0 -198 -70.5t-165 -224.5l-18 10q180 383 457 383q137 0 219 -76.5t82 -205.5q0 -123 -117 -264q-76 -92 -219 -225.5 t-215 -221.5q-129 -158 -150 -254h475q94 0 142.5 32t89.5 118z" />
<glyph unicode="&#xb3;" d="M883 436q0 -193 -136.5 -322.5t-328.5 -129.5q-80 0 -145.5 17t-101.5 41t-60.5 51.5t-32.5 47t-8 29.5q0 35 18 55.5t43 20.5q31 0 52.5 -24.5t49.5 -80.5q70 -133 195 -133q133 0 226.5 107.5t93.5 263.5q0 150 -112 229.5t-261 79.5h-13q104 84 168 154 q106 117 107 243q0 188 -186 189q-82 0 -147.5 -39t-139.5 -133l-17 18q104 135 194.5 198.5t193.5 63.5q117 0 177 -62.5t60 -139.5q0 -168 -246 -385q160 -23 258.5 -118.5t98.5 -240.5z" />
<glyph unicode="&#xb4;" horiz-adv-x="569" d="M496 1272q0 -47 -54 -76l-368 -205l-6 13l294 301q31 35 70 34q29 0 46.5 -19t17.5 -48z" />
<glyph unicode="&#xb8;" horiz-adv-x="569" d="M487 -268q0 -78 -66.5 -123t-187.5 -45q-82 0 -180 51l8 20q61 -31 164 -30q68 0 106 32.5t38 86.5q0 41 -29 65.5t-76 24.5q-53 0 -102 -21l-4 6l106 201h33l-59 -145q45 12 81 12q168 0 168 -135z" />
<glyph unicode="&#xb9;" d="M776 0h-524v20q6 0 36.5 2.5t40 3.5t34 5t34 11t22.5 19.5t18 30t5 41.5v877q0 115 -41 148.5t-192 33.5v18q162 29 240.5 70t130.5 123h18v-1270q0 -70 28.5 -87t149.5 -26v-20z" />
<glyph unicode="&#xba;" d="M946 442.5q0 -198.5 -119.5 -332t-314.5 -133.5t-314.5 133.5t-119.5 332t119.5 331.5t314.5 133t314.5 -133t119.5 -331.5zM782 446.5q0 110.5 -26.5 208t-90 167t-153.5 69.5t-153.5 -69.5t-90 -167t-26.5 -208t26.5 -210t90 -170t153.5 -70.5t153.5 70.5t90 170 t26.5 210z" />
<glyph unicode="&#xbc;" horiz-adv-x="2390" d="M2322 412h-202v-412h-156v412h-563v73l639 916h80v-881h202v-108zM1964 520v705h-4l-492 -705h496zM786 4h-88l912 1399h84zM776 0h-524v20q6 0 36.5 2.5t40 3.5t34 5t34 11t22.5 19.5t18 30t5 41.5v877q0 115 -41 148.5t-192 33.5v18q162 29 240.5 70t130.5 123h18 v-1270q0 -70 28.5 -87t149.5 -26v-20z" />
<glyph unicode="&#xbd;" horiz-adv-x="2390" d="M2277 276l-133 -362h-12q-8 47 -32.5 66.5t-88.5 19.5h-526q14 211 227 459l236 276q141 164 141 326q0 100 -57.5 161.5t-157.5 61.5q-115 0 -198 -70.5t-165 -224.5l-18 10q180 383 457 383q137 0 219 -76.5t82 -205.5q0 -123 -117 -264q-76 -92 -219 -225.5 t-215 -221.5q-129 -158 -150 -254h475q94 0 142.5 32t89.5 118zM786 4h-88l912 1399h84zM776 0h-524v20q6 0 36.5 2.5t40 3.5t34 5t34 11t22.5 19.5t18 30t5 41.5v877q0 115 -41 148.5t-192 33.5v18q162 29 240.5 70t130.5 123h18v-1270q0 -70 28.5 -87t149.5 -26v-20z" />
<glyph unicode="&#xbe;" horiz-adv-x="2390" d="M2322 412h-202v-412h-156v412h-563v73l639 916h80v-881h202v-108zM1964 520v705h-4l-492 -705h496zM786 4h-88l912 1399h84zM883 436q0 -193 -136.5 -322.5t-328.5 -129.5q-80 0 -145.5 17t-101.5 41t-60.5 51.5t-32.5 47t-8 29.5q0 35 18 55.5t43 20.5q31 0 52.5 -24.5 t49.5 -80.5q70 -133 195 -133q133 0 226.5 107.5t93.5 263.5q0 150 -112 229.5t-261 79.5h-13q104 84 168 154q106 117 107 243q0 188 -186 189q-82 0 -147.5 -39t-139.5 -133l-17 18q104 135 194.5 198.5t193.5 63.5q117 0 177 -62.5t60 -139.5q0 -168 -246 -385 q160 -23 258.5 -118.5t98.5 -240.5z" />
<glyph unicode="&#xc0;" horiz-adv-x="1341" d="M788 1473l-6 -13l-368 205q-53 29 -54 76q0 29 17.5 48t46.5 19q35 0 70 -34zM1333 0h-514v20q172 0 172 97q0 43 -61 200l-86 228h-498l-82 -221q-59 -158 -59 -205q0 -78 117 -92q4 0 21 -2t24 -5v-20h-351v20q55 12 89 50.5t67 124.5l395 1044l-35 57q72 45 140 146 l481 -1221q29 -72 44 -102.5t50 -60t86 -38.5v-20zM829 580l-241 618l-230 -618h471z" />
<glyph unicode="&#xc1;" horiz-adv-x="1341" d="M920 1753q0 -47 -54 -76l-368 -204l-6 12l294 301q31 35 70 35q29 0 46.5 -19.5t17.5 -48.5zM1333 0h-514v20q172 0 172 97q0 43 -61 200l-86 228h-498l-82 -221q-59 -158 -59 -205q0 -78 117 -92q4 0 21 -2t24 -5v-20h-351v20q55 12 89 50.5t67 124.5l395 1044l-35 57 q72 45 140 146l481 -1221q29 -72 44 -102.5t50 -60t86 -38.5v-20zM829 580l-241 618l-230 -618h471z" />
<glyph unicode="&#xc2;" horiz-adv-x="1341" d="M991 1479l-10 -11l-309 230l-310 -230l-10 11l301 358h37zM1333 0h-514v20q172 0 172 97q0 43 -61 200l-86 228h-498l-82 -221q-59 -158 -59 -205q0 -78 117 -92q4 0 21 -2t24 -5v-20h-351v20q55 12 89 50.5t67 124.5l395 1044l-35 57q72 45 140 146l481 -1221 q29 -72 44 -102.5t50 -60t86 -38.5v-20zM829 580l-241 618l-230 -618h471z" />
<glyph unicode="&#xc4;" horiz-adv-x="1341" d="M963 1595.5q0 -36.5 -28 -65.5t-67 -29t-66.5 29t-27.5 65.5t28.5 66.5t65.5 30t66 -30t29 -66.5zM571 1595.5q0 -36.5 -27.5 -65.5t-66.5 -29t-66.5 29t-27.5 65.5t28.5 66.5t65.5 30t65.5 -30t28.5 -66.5zM1333 0h-514v20q172 0 172 97q0 43 -61 200l-86 228h-498 l-82 -221q-59 -158 -59 -205q0 -78 117 -92q4 0 21 -2t24 -5v-20h-351v20q55 12 89 50.5t67 124.5l395 1044l-35 57q72 45 140 146l481 -1221q29 -72 44 -102.5t50 -60t86 -38.5v-20zM829 580l-241 618l-230 -618h471z" />
<glyph unicode="&#xc6;" horiz-adv-x="1845" d="M750 20q74 0 114.5 23t40.5 94v504h-405q-12 -27 -89 -156l-142 -245q-65 -117 -64.5 -141.5t19 -41t38 -21.5t53 -9t41.5 -7v-20h-356v20q23 0 63 17q16 6 40 32.5t52 69.5l47 73q19 30 45.5 76t26.5 48l476 805q70 117 69 147q0 29 -8 49.5t-18.5 30.5t-32 15.5 t-33.5 6.5t-38 1h-34v22h998l96 -319l-18 -9l-41 61l-39 56q-10 14 -35 46t-38 43l-39 32q-26 20 -47 28l-53 17q-32 10 -67 13t-78 3h-225v-710h113q96 0 143 6t89 29.5t59.5 67.5t31.5 126h17v-504h-17q-20 154 -73.5 198t-223.5 44h-139v-487q0 -37 10.5 -62.5t22.5 -39 t39.5 -18.5t44 -6t56.5 1t56 2q178 0 285 87t174 263l19 -14l-68 -367h-958v20zM518 674h387v667h-2z" />
<glyph unicode="&#xc7;" horiz-adv-x="1478" d="M1341 20h-20l-57 115q-205 -160 -465 -164l-49 -121q45 12 81 13q168 0 168 -135q0 -78 -66.5 -123t-187.5 -45q-82 0 -180 51l8 20q61 -31 164 -30q68 0 106 32.5t38 85.5q0 41 -29 66t-76 25q-53 0 -102 -21l-4 6l94 176q-309 10 -486.5 202t-177.5 519 q0 319 199 529.5t512 210.5q242 0 444 -160l64 98h16v-459h-18q-35 215 -166 354.5t-340 139.5q-248 0 -388 -212t-140 -513q0 -172 59 -324.5t180 -254t277 -101.5q209 0 345 127t179 334h18v-441z" />
<glyph unicode="&#xc8;" horiz-adv-x="1349" d="M934 1513l-6 -12l-369 205q-53 31 -53 76q0 29 18.5 48t44.5 19q39 0 70 -34zM1280 354l-88 -354h-1063v20q80 0 120 26t40 104v1114q0 78 -44 103.5t-122 25.5v20h997l92 -311l-18 -6l-84 125q-68 96 -147.5 128.5t-186.5 32.5h-321v-651h143q180 0 238.5 37t85.5 190 h16v-503h-16q-20 154 -73.5 197.5t-223.5 43.5h-170v-553q0 -70 40 -91t111 -21h230q84 0 138 18.5t113 75.5q84 84 179 235z" />
<glyph unicode="&#xc9;" horiz-adv-x="1349" d="M981 1753q0 -47 -53 -76l-369 -204l-6 12l295 301q31 35 70 35q29 0 46 -19.5t17 -48.5zM1280 354l-88 -354h-1063v20q80 0 120 26t40 104v1114q0 78 -44 103.5t-122 25.5v20h997l92 -311l-18 -6l-84 125q-68 96 -147.5 128.5t-186.5 32.5h-321v-651h143q180 0 238.5 37 t85.5 190h16v-503h-16q-20 154 -73.5 197.5t-223.5 43.5h-170v-553q0 -70 40 -91t111 -21h230q84 0 138 18.5t113 75.5q84 84 179 235z" />
<glyph unicode="&#xca;" horiz-adv-x="1349" d="M1059 1487l-10 -10l-310 229l-309 -229l-10 10l301 358h37zM1280 354l-88 -354h-1063v20q80 0 120 26t40 104v1114q0 78 -44 103.5t-122 25.5v20h997l92 -311l-18 -6l-84 125q-68 96 -147.5 128.5t-186.5 32.5h-321v-651h143q180 0 238.5 37t85.5 190h16v-503h-16 q-20 154 -73.5 197.5t-223.5 43.5h-170v-553q0 -70 40 -91t111 -21h230q84 0 138 18.5t113 75.5q84 84 179 235z" />
<glyph unicode="&#xcb;" horiz-adv-x="1349" d="M1022 1595.5q0 -36.5 -27.5 -65.5t-66.5 -29t-66.5 29t-27.5 65.5t28.5 66.5t65.5 30t65.5 -30t28.5 -66.5zM631 1595.5q0 -36.5 -28 -65.5t-66.5 -29t-66.5 29t-28 65.5t29 66.5t65.5 30t65.5 -30t29 -66.5zM1280 354l-88 -354h-1063v20q80 0 120 26t40 104v1114 q0 78 -44 103.5t-122 25.5v20h997l92 -311l-18 -6l-84 125q-68 96 -147.5 128.5t-186.5 32.5h-321v-651h143q180 0 238.5 37t85.5 190h16v-503h-16q-20 154 -73.5 197.5t-223.5 43.5h-170v-553q0 -70 40 -91t111 -21h230q84 0 138 18.5t113 75.5q84 84 179 235z" />
<glyph unicode="&#xcc;" horiz-adv-x="753" d="M563 1473l-6 -13l-369 205q-53 29 -53 76q0 29 17.5 48t46.5 19q35 0 69 -34zM647 0h-543v20q92 0 139.5 26t47.5 104v1114q0 78 -47 103.5t-140 25.5v20h543v-20q-96 0 -143 -25t-47 -104v-1114q0 -78 47 -104t143 -26v-20z" />
<glyph unicode="&#xcd;" horiz-adv-x="753" d="M623 1753q0 -47 -54 -76l-368 -204l-6 12l294 301q31 35 70 35q29 0 46.5 -19.5t17.5 -48.5zM647 0h-543v20q92 0 139.5 26t47.5 104v1114q0 78 -47 103.5t-140 25.5v20h543v-20q-96 0 -143 -25t-47 -104v-1114q0 -78 47 -104t143 -26v-20z" />
<glyph unicode="&#xce;" horiz-adv-x="753" d="M696 1481l-10 -11l-309 230l-309 -230l-11 11l301 358h37zM647 0h-543v20q92 0 139.5 26t47.5 104v1114q0 78 -47 103.5t-140 25.5v20h543v-20q-96 0 -143 -25t-47 -104v-1114q0 -78 47 -104t143 -26v-20z" />
<glyph unicode="&#xcf;" horiz-adv-x="753" d="M668 1595.5q0 -36.5 -28 -65.5t-66.5 -29t-66.5 29t-28 65.5t29 66.5t65.5 30t65.5 -30t29 -66.5zM276 1595.5q0 -36.5 -27.5 -65.5t-66.5 -29t-66.5 29t-27.5 65.5t28.5 66.5t65.5 30t65.5 -30t28.5 -66.5zM647 0h-543v20q92 0 139.5 26t47.5 104v1114q0 78 -47 103.5 t-140 25.5v20h543v-20q-96 0 -143 -25t-47 -104v-1114q0 -78 47 -104t143 -26v-20z" />
<glyph unicode="&#xd2;" horiz-adv-x="1593" d="M1001 1473l-6 -13l-368 205q-53 29 -54 76q0 29 17.5 48t46.5 19q35 0 70 -34zM1493 690q0 -80 -17.5 -166t-66.5 -188.5t-125 -180t-207 -131t-299 -53.5q-154 0 -276.5 50.5t-196.5 126t-122 175t-65.5 187.5t-17.5 172q0 176 53.5 314.5t131 217t176 131t178.5 70 t149 17.5q131 0 254 -45.5t225.5 -133.5t164 -233.5t61.5 -329.5zM1311 692q0 184 -52.5 328.5t-133.5 224.5t-163.5 120t-158.5 40q-211 0 -365.5 -187.5t-154.5 -543.5q0 -283 135 -479.5t360 -196.5q129 0 234.5 64.5t169 168t96.5 222t33 239.5z" />
<glyph unicode="&#xd3;" horiz-adv-x="1593" d="M1042 1753q0 -47 -53 -76l-368 -204l-7 12l295 301q31 35 70 35q29 0 46 -19.5t17 -48.5zM1493 690q0 -80 -17.5 -166t-66.5 -188.5t-125 -180t-207 -131t-299 -53.5q-154 0 -276.5 50.5t-196.5 126t-122 175t-65.5 187.5t-17.5 172q0 176 53.5 314.5t131 217t176 131 t178.5 70t149 17.5q131 0 254 -45.5t225.5 -133.5t164 -233.5t61.5 -329.5zM1311 692q0 184 -52.5 328.5t-133.5 224.5t-163.5 120t-158.5 40q-211 0 -365.5 -187.5t-154.5 -543.5q0 -283 135 -479.5t360 -196.5q129 0 234.5 64.5t169 168t96.5 222t33 239.5z" />
<glyph unicode="&#xd4;" horiz-adv-x="1593" d="M1112 1489l-10 -10l-309 229l-310 -229l-10 10l301 358h37zM1493 690q0 -80 -17.5 -166t-66.5 -188.5t-125 -180t-207 -131t-299 -53.5q-154 0 -276.5 50.5t-196.5 126t-122 175t-65.5 187.5t-17.5 172q0 176 53.5 314.5t131 217t176 131t178.5 70t149 17.5 q131 0 254 -45.5t225.5 -133.5t164 -233.5t61.5 -329.5zM1311 692q0 184 -52.5 328.5t-133.5 224.5t-163.5 120t-158.5 40q-211 0 -365.5 -187.5t-154.5 -543.5q0 -283 135 -479.5t360 -196.5q129 0 234.5 64.5t169 168t96.5 222t33 239.5z" />
<glyph unicode="&#xd6;" horiz-adv-x="1593" d="M1104 1595.5q0 -36.5 -27.5 -65.5t-66.5 -29t-67 29t-28 65.5t29 66.5t66 30t65.5 -30t28.5 -66.5zM713 1595.5q0 -36.5 -28 -65.5t-66.5 -29t-66.5 29t-28 65.5t29 66.5t65.5 30t65.5 -30t29 -66.5zM1493 690q0 -80 -17.5 -166t-66.5 -188.5t-125 -180t-207 -131 t-299 -53.5q-154 0 -276.5 50.5t-196.5 126t-122 175t-65.5 187.5t-17.5 172q0 176 53.5 314.5t131 217t176 131t178.5 70t149 17.5q131 0 254 -45.5t225.5 -133.5t164 -233.5t61.5 -329.5zM1311 692q0 184 -52.5 328.5t-133.5 224.5t-163.5 120t-158.5 40 q-211 0 -365.5 -187.5t-154.5 -543.5q0 -283 135 -479.5t360 -196.5q129 0 234.5 64.5t169 168t96.5 222t33 239.5z" />
<glyph unicode="&#xd9;" horiz-adv-x="1556" d="M1026 1513l-6 -12l-369 205q-53 29 -53 76q0 29 17.5 48t46.5 19q39 0 69 -34zM1464 1393q-174 -4 -174 -172v-756q0 -86 -13 -154.5t-48 -134t-91.5 -108.5t-148.5 -70t-215 -27q-516 0 -516 471v779q0 106 -25.5 137t-121.5 35v20h493v-20q-106 0 -143 -40t-37 -132 v-834q0 -51 7 -97t32.5 -100.5t66.5 -93.5t116 -64.5t175 -25.5q434 0 434 459v756q0 102 -48 133.5t-165 38.5v20h422v-20z" />
<glyph unicode="&#xda;" horiz-adv-x="1556" d="M1083 1753q0 -47 -53 -76l-368 -204l-7 12l295 301q31 35 70 35q29 0 46 -19.5t17 -48.5zM1464 1393q-174 -4 -174 -172v-756q0 -86 -13 -154.5t-48 -134t-91.5 -108.5t-148.5 -70t-215 -27q-516 0 -516 471v779q0 106 -25.5 137t-121.5 35v20h493v-20q-106 0 -143 -40 t-37 -132v-834q0 -51 7 -97t32.5 -100.5t66.5 -93.5t116 -64.5t175 -25.5q434 0 434 459v756q0 102 -48 133.5t-165 38.5v20h422v-20z" />
<glyph unicode="&#xdb;" horiz-adv-x="1556" d="M1128 1487l-10 -10l-309 229l-309 -229l-11 10l302 358h36zM1464 1393q-174 -4 -174 -172v-756q0 -86 -13 -154.5t-48 -134t-91.5 -108.5t-148.5 -70t-215 -27q-516 0 -516 471v779q0 106 -25.5 137t-121.5 35v20h493v-20q-106 0 -143 -40t-37 -132v-834q0 -51 7 -97 t32.5 -100.5t66.5 -93.5t116 -64.5t175 -25.5q434 0 434 459v756q0 102 -48 133.5t-165 38.5v20h422v-20z" />
<glyph unicode="&#xdc;" horiz-adv-x="1556" d="M1100 1595.5q0 -36.5 -28 -65.5t-66.5 -29t-66.5 29t-28 65.5t29 66.5t65.5 30t65.5 -30t29 -66.5zM709 1595.5q0 -36.5 -28 -65.5t-67 -29t-66.5 29t-27.5 65.5t29 66.5t65.5 30t65.5 -30t29 -66.5zM1464 1393q-174 -4 -174 -172v-756q0 -86 -13 -154.5t-48 -134 t-91.5 -108.5t-148.5 -70t-215 -27q-516 0 -516 471v779q0 106 -25.5 137t-121.5 35v20h493v-20q-106 0 -143 -40t-37 -132v-834q0 -51 7 -97t32.5 -100.5t66.5 -93.5t116 -64.5t175 -25.5q434 0 434 459v756q0 102 -48 133.5t-165 38.5v20h422v-20z" />
<glyph unicode="&#xdd;" horiz-adv-x="1206" d="M1033 1835q0 -47 -54 -76l-368 -205l-6 13l294 301q31 35 70 34q29 0 46.5 -19t17.5 -48zM1202 1393q-55 -6 -87 -41t-87 -127l-336 -576v-499q0 -76 43 -103t117 -27v-20h-477v20q33 0 56.5 5.5t47 18.5t35.5 40t12 66v491l-327 573q-51 90 -91 132.5t-98 46.5v20h482 v-20q-88 0 -119 -19.5t-31 -56.5q0 -33 74 -160l262 -452l231 395q94 162 95 217q0 76 -121 76v20h319v-20z" />
<glyph unicode="&#xe0;" horiz-adv-x="880" d="M645 1004l-6 -13l-369 205q-53 29 -53 76q0 29 17.5 48t46.5 19q39 0 69 -34zM848 123q-16 -145 -143 -146q-55 0 -95.5 40t-40.5 110l-42 -33l-35 -28q-113 -88 -222 -89q-70 0 -121 50.5t-51 122.5q0 139 170 237q43 25 94.5 47.5t114.5 45.5l90 34v231q0 117 -133 117 q-61 0 -123.5 -31.5t-62.5 -74.5q0 -6 1 -20.5t1 -26.5q0 -66 -20.5 -97.5t-77.5 -31.5q-25 0 -40.5 19t-15.5 44q0 61 72 123q70 59 170 100t186 41q90 0 138.5 -51t48.5 -143v-563q0 -106 55 -107q47 0 59 80h23zM567 158v329q-4 -2 -85 -34.5t-124 -55.5 q-72 -39 -102.5 -76.5t-30.5 -95.5q0 -68 37 -112.5t109 -44.5q83 0 196 90z" />
<glyph unicode="&#xe1;" horiz-adv-x="880" d="M707 1272q0 -47 -54 -76l-368 -205l-6 13l294 301q31 35 70 34q29 0 46.5 -19t17.5 -48zM848 123q-16 -145 -143 -146q-55 0 -95.5 40t-40.5 110l-42 -33l-35 -28q-113 -88 -222 -89q-70 0 -121 50.5t-51 122.5q0 139 170 237q43 25 94.5 47.5t114.5 45.5l90 34v231 q0 117 -133 117q-61 0 -123.5 -31.5t-62.5 -74.5q0 -6 1 -20.5t1 -26.5q0 -66 -20.5 -97.5t-77.5 -31.5q-25 0 -40.5 19t-15.5 44q0 61 72 123q70 59 170 100t186 41q90 0 138.5 -51t48.5 -143v-563q0 -106 55 -107q47 0 59 80h23zM567 158v329q-4 -2 -85 -34.5t-124 -55.5 q-72 -39 -102.5 -76.5t-30.5 -95.5q0 -68 37 -112.5t109 -44.5q83 0 196 90z" />
<glyph unicode="&#xe2;" horiz-adv-x="880" d="M774 1008l-10 -11l-309 230l-310 -230l-10 11l301 358h37zM848 123q-16 -145 -143 -146q-55 0 -95.5 40t-40.5 110l-42 -33l-35 -28q-113 -88 -222 -89q-70 0 -121 50.5t-51 122.5q0 139 170 237q43 25 94.5 47.5t114.5 45.5l90 34v231q0 117 -133 117 q-61 0 -123.5 -31.5t-62.5 -74.5q0 -6 1 -20.5t1 -26.5q0 -66 -20.5 -97.5t-77.5 -31.5q-25 0 -40.5 19t-15.5 44q0 61 72 123q70 59 170 100t186 41q90 0 138.5 -51t48.5 -143v-563q0 -106 55 -107q47 0 59 80h23zM567 158v329q-4 -2 -85 -34.5t-124 -55.5 q-72 -39 -102.5 -76.5t-30.5 -95.5q0 -68 37 -112.5t109 -44.5q83 0 196 90z" />
<glyph unicode="&#xe4;" horiz-adv-x="880" d="M762 1143q0 -37 -28.5 -65.5t-67.5 -28.5t-67 28.5t-28 65.5q0 35 29 64.5t65.5 29.5t66.5 -29.5t30 -64.5zM371 1143q0 -37 -29 -65.5t-68 -28.5q-37 0 -65.5 28.5t-28.5 65.5q0 35 29 64.5t65.5 29.5t66.5 -29.5t30 -64.5zM848 123q-16 -145 -143 -146q-55 0 -95.5 40 t-40.5 110l-42 -33l-35 -28q-113 -88 -222 -89q-70 0 -121 50.5t-51 122.5q0 139 170 237q43 25 94.5 47.5t114.5 45.5l90 34v231q0 117 -133 117q-61 0 -123.5 -31.5t-62.5 -74.5q0 -6 1 -20.5t1 -26.5q0 -66 -20.5 -97.5t-77.5 -31.5q-25 0 -40.5 19t-15.5 44q0 61 72 123 q70 59 170 100t186 41q90 0 138.5 -51t48.5 -143v-563q0 -106 55 -107q47 0 59 80h23zM567 158v329q-4 -2 -85 -34.5t-124 -55.5q-72 -39 -102.5 -76.5t-30.5 -95.5q0 -68 37 -112.5t109 -44.5q83 0 196 90z" />
<glyph unicode="&#xe6;" horiz-adv-x="1439" d="M967 -20q-96 0 -187.5 52t-152.5 142q-2 -2 -33 -28l-37 -30l-35 -28q-29 -23 -41 -30t-38.5 -24.5t-43 -23.5t-40 -16t-44 -13.5t-41.5 -3.5q-74 0 -126 50.5t-52 126.5q0 139 172 233q129 68 301 127v227q0 125 -137 123q-102 0 -170 -71q-10 -10 -14 -54 q-2 -20 -2 -49q-4 -55 -22.5 -80.5t-65.5 -25.5q-20 0 -39 18.5t-19 38.5q0 53 64 117q70 66 164 107.5t184 41.5q72 0 114 -24.5t70 -96.5q82 68 148.5 94.5t159.5 26.5q129 0 242.5 -91t139.5 -222h-675q-4 -90 -4 -92q0 -168 86 -286t247 -118q242 0 342 211l17 -6 q-121 -323 -432 -323zM963 889q-94 0 -164 -81t-86 -192h458q-22 273 -208 273zM569 489l-53 -20q-37 -14 -49 -18q-39 -16 -117 -58q-129 -66 -129 -164q0 -63 41 -114.5t103 -51.5q90 0 204 97v329z" />
<glyph unicode="&#xe7;" horiz-adv-x="899" d="M854 262q-117 -279 -360 -285l-52 -122q45 12 82 12q168 0 168 -135q0 -78 -66.5 -123t-187.5 -45q-82 0 -180 51l8 20q61 -31 164 -30q68 0 105.5 32.5t37.5 86.5q0 41 -28.5 65.5t-75.5 24.5q-53 0 -102 -21l-5 6l95 178q-170 10 -274.5 133t-104.5 326q0 197 128 334 t304 137q125 0 226.5 -59.5t101.5 -147.5q0 -80 -70 -79q-18 0 -32.5 7t-22.5 23.5l-13.5 28.5t-10.5 34.5t-7 30.5q-12 41 -26.5 69t-51.5 51.5t-92 23.5q-127 0 -199.5 -117t-72.5 -295q0 -162 78.5 -283.5t230.5 -121.5q92 0 169 55t120 141z" />
<glyph unicode="&#xe8;" horiz-adv-x="964" d="M719 1004l-6 -13l-369 205q-53 29 -53 76q0 29 17.5 48t45.5 19q39 0 70 -34zM924 307q-53 -152 -159 -239.5t-253 -87.5q-199 0 -316.5 128t-117.5 334q0 188 126 326.5t312 138.5q152 0 258.5 -81t138.5 -222h-673q-10 -66 -11 -121q0 -178 96.5 -280.5t256.5 -102.5 q106 0 193 58.5t130 152.5zM715 627q-4 115 -59.5 188.5t-159.5 73.5q-92 0 -160 -79t-88 -183h467z" />
<glyph unicode="&#xe9;" horiz-adv-x="964" d="M741 1272q0 -47 -53 -76l-369 -205l-6 13l295 301q31 35 70 34q29 0 46 -19t17 -48zM924 307q-53 -152 -159 -239.5t-253 -87.5q-199 0 -316.5 128t-117.5 334q0 188 126 326.5t312 138.5q152 0 258.5 -81t138.5 -222h-673q-10 -66 -11 -121q0 -178 96.5 -280.5 t256.5 -102.5q106 0 193 58.5t130 152.5zM715 627q-4 115 -59.5 188.5t-159.5 73.5q-92 0 -160 -79t-88 -183h467z" />
<glyph unicode="&#xea;" horiz-adv-x="964" d="M834 1008l-11 -11l-309 230l-309 -230l-10 11l301 358h36zM924 307q-53 -152 -159 -239.5t-253 -87.5q-199 0 -316.5 128t-117.5 334q0 188 126 326.5t312 138.5q152 0 258.5 -81t138.5 -222h-673q-10 -66 -11 -121q0 -178 96.5 -280.5t256.5 -102.5q106 0 193 58.5 t130 152.5zM715 627q-4 115 -59.5 188.5t-159.5 73.5q-92 0 -160 -79t-88 -183h467z" />
<glyph unicode="&#xeb;" horiz-adv-x="964" d="M805 1143q0 -37 -28.5 -65.5t-67.5 -28.5t-67 28.5t-28 65.5q0 35 29 64.5t65.5 29.5t66.5 -29.5t30 -64.5zM414 1143q0 -37 -29 -65.5t-68 -28.5q-37 0 -65.5 28.5t-28.5 65.5q0 35 29 64.5t65.5 29.5t66.5 -29.5t30 -64.5zM924 307q-53 -152 -159 -239.5t-253 -87.5 q-199 0 -316.5 128t-117.5 334q0 188 126 326.5t312 138.5q152 0 258.5 -81t138.5 -222h-673q-10 -66 -11 -121q0 -178 96.5 -280.5t256.5 -102.5q106 0 193 58.5t130 152.5zM715 627q-4 115 -59.5 188.5t-159.5 73.5q-92 0 -160 -79t-88 -183h467z" />
<glyph unicode="&#xec;" horiz-adv-x="534" d="M469 1004l-6 -13l-369 205q-53 29 -53 76q0 29 17.5 48t45.5 19q39 0 70 -34zM455 0h-381v20q76 4 97.5 25t21.5 96v502q0 82 -21.5 115t-89.5 41v10q147 43 260 100v-768q0 -74 21.5 -95t91.5 -26v-20z" />
<glyph unicode="&#xed;" horiz-adv-x="534" d="M498 1272q0 -47 -54 -76l-368 -205l-6 13l295 301q31 35 69 34q29 0 46.5 -19t17.5 -48zM455 0h-381v20q76 4 97.5 25t21.5 96v502q0 82 -21.5 115t-89.5 41v10q147 43 260 100v-768q0 -74 21.5 -95t91.5 -26v-20z" />
<glyph unicode="&#xee;" horiz-adv-x="534" d="M592 1008l-10 -11l-310 230l-309 -230l-10 11l301 358h37zM455 0h-381v20q76 4 97.5 25t21.5 96v502q0 82 -21.5 115t-89.5 41v10q147 43 260 100v-768q0 -74 21.5 -95t91.5 -26v-20z" />
<glyph unicode="&#xef;" horiz-adv-x="534" d="M555 1143q0 -37 -28.5 -65.5t-67.5 -28.5t-66.5 28.5t-27.5 65.5q0 35 28.5 64.5t65.5 29.5t66.5 -29.5t29.5 -64.5zM164 1143q0 -37 -29 -65.5t-67 -28.5q-37 0 -66 28.5t-29 65.5q0 35 29 64.5t65.5 29.5t66.5 -29.5t30 -64.5zM455 0h-381v20q76 4 97.5 25t21.5 96v502 q0 82 -21.5 115t-89.5 41v10q147 43 260 100v-768q0 -74 21.5 -95t91.5 -26v-20z" />
<glyph unicode="&#xf2;" d="M721 1004l-6 -13l-369 205q-53 29 -53 76q0 29 17.5 48t45.5 19q39 0 70 -34zM946 442.5q0 -198.5 -119.5 -332t-314.5 -133.5t-314.5 133.5t-119.5 332t119.5 331.5t314.5 133t314.5 -133t119.5 -331.5zM782 446.5q0 110.5 -26.5 208t-90 167t-153.5 69.5t-153.5 -69.5 t-90 -167t-26.5 -208t26.5 -210t90 -170t153.5 -70.5t153.5 70.5t90 170t26.5 210z" />
<glyph unicode="&#xf3;" d="M784 1272q0 -47 -53 -76l-369 -205l-6 13l295 301q31 35 70 34q29 0 46 -19t17 -48zM946 442.5q0 -198.5 -119.5 -332t-314.5 -133.5t-314.5 133.5t-119.5 332t119.5 331.5t314.5 133t314.5 -133t119.5 -331.5zM782 446.5q0 110.5 -26.5 208t-90 167t-153.5 69.5 t-153.5 -69.5t-90 -167t-26.5 -208t26.5 -210t90 -170t153.5 -70.5t153.5 70.5t90 170t26.5 210z" />
<glyph unicode="&#xf4;" d="M827 1008l-10 -11l-309 230l-309 -230l-11 11l301 358h37zM946 442.5q0 -198.5 -119.5 -332t-314.5 -133.5t-314.5 133.5t-119.5 332t119.5 331.5t314.5 133t314.5 -133t119.5 -331.5zM782 446.5q0 110.5 -26.5 208t-90 167t-153.5 69.5t-153.5 -69.5t-90 -167 t-26.5 -208t26.5 -210t90 -170t153.5 -70.5t153.5 70.5t90 170t26.5 210z" />
<glyph unicode="&#xf6;" d="M846 1143q0 -37 -29 -65.5t-67.5 -28.5t-66.5 28.5t-28 65.5q0 35 29 64.5t65.5 29.5t66.5 -29.5t30 -64.5zM455 1143q0 -37 -29 -65.5t-68 -28.5q-37 0 -65.5 28.5t-28.5 65.5q0 35 29 64.5t65.5 29.5t66.5 -29.5t30 -64.5zM946 442.5q0 -198.5 -119.5 -332 t-314.5 -133.5t-314.5 133.5t-119.5 332t119.5 331.5t314.5 133t314.5 -133t119.5 -331.5zM782 446.5q0 110.5 -26.5 208t-90 167t-153.5 69.5t-153.5 -69.5t-90 -167t-26.5 -208t26.5 -210t90 -170t153.5 -70.5t153.5 70.5t90 170t26.5 210z" />
<glyph unicode="&#xf9;" horiz-adv-x="1097" d="M743 1004l-6 -13l-368 205q-53 29 -54 76q0 29 17.5 48t46.5 19q39 0 70 -34zM1026 63l-258 -83v153q-129 -156 -311 -156q-145 0 -206 66t-61 186v566q0 39 -23.5 53t-96.5 16v21h270v-670q0 -180 192 -180q109 0 172.5 70.5t63.5 150.5v535q0 39 -24.5 55t-94.5 18v21 h269v-709q0 -53 25.5 -74.5t82.5 -21.5v-17z" />
<glyph unicode="&#xfa;" horiz-adv-x="1097" d="M793 1272q0 -47 -54 -76l-368 -205l-6 13l294 301q31 35 70 34q29 0 46.5 -19t17.5 -48zM1026 63l-258 -83v153q-129 -156 -311 -156q-145 0 -206 66t-61 186v566q0 39 -23.5 53t-96.5 16v21h270v-670q0 -180 192 -180q109 0 172.5 70.5t63.5 150.5v535q0 39 -24.5 55 t-94.5 18v21h269v-709q0 -53 25.5 -74.5t82.5 -21.5v-17z" />
<glyph unicode="&#xfb;" horiz-adv-x="1097" d="M872 1008l-10 -11l-309 230l-309 -230l-11 11l302 358h36zM1026 63l-258 -83v153q-129 -156 -311 -156q-145 0 -206 66t-61 186v566q0 39 -23.5 53t-96.5 16v21h270v-670q0 -180 192 -180q109 0 172.5 70.5t63.5 150.5v535q0 39 -24.5 55t-94.5 18v21h269v-709 q0 -53 25.5 -74.5t82.5 -21.5v-17z" />
<glyph unicode="&#xfc;" horiz-adv-x="1097" d="M846 1143q0 -37 -29 -65.5t-67.5 -28.5t-66.5 28.5t-28 65.5q0 35 29 64.5t65.5 29.5t66.5 -29.5t30 -64.5zM455 1143q0 -37 -29 -65.5t-68 -28.5q-37 0 -65.5 28.5t-28.5 65.5q0 35 29 64.5t65.5 29.5t66.5 -29.5t30 -64.5zM1026 63l-258 -83v153q-129 -156 -311 -156 q-145 0 -206 66t-61 186v566q0 39 -23.5 53t-96.5 16v21h270v-670q0 -180 192 -180q109 0 172.5 70.5t63.5 150.5v535q0 39 -24.5 55t-94.5 18v21h269v-709q0 -53 25.5 -74.5t82.5 -21.5v-17z" />
<glyph unicode="&#xfd;" horiz-adv-x="993" d="M916 1311q0 -47 -54 -76l-368 -205l-6 13l294 301q31 35 70 34q29 0 46.5 -19t17.5 -48zM977 864q-66 -2 -100.5 -32.5t-61.5 -112.5l-323 -946q-41 -119 -79 -164t-102 -45q-29 0 -54.5 19.5t-25.5 54t19.5 56t52.5 21.5q12 0 38 -6t36 -6q63 0 90 80l74 217l-404 748 q-39 72 -65.5 94t-67.5 22v21h432v-21q-150 0 -149 -65q0 -27 22 -70l293 -553l162 488q25 78 24 120q0 74 -145 80v21h334v-21z" />
<glyph unicode="&#xff;" horiz-adv-x="993" d="M780 1125q0 -37 -28.5 -65.5t-67.5 -28.5t-66.5 28.5t-27.5 65.5q0 35 28.5 64.5t65.5 29.5t66.5 -29.5t29.5 -64.5zM389 1125q0 -37 -28.5 -65.5t-67.5 -28.5q-37 0 -65.5 28.5t-28.5 65.5q0 35 28.5 64.5t65.5 29.5t66.5 -29.5t29.5 -64.5zM977 864 q-66 -2 -100.5 -32.5t-61.5 -112.5l-323 -946q-41 -119 -79 -164t-102 -45q-29 0 -54.5 19.5t-25.5 54t19.5 56t52.5 21.5q12 0 38 -6t36 -6q63 0 90 80l74 217l-404 748q-39 72 -65.5 94t-67.5 22v21h432v-21q-150 0 -149 -65q0 -27 22 -70l293 -553l162 488q25 78 24 120 q0 74 -145 80v21h334v-21z" />
<glyph unicode="&#x152;" horiz-adv-x="2101" d="M1325 154q0 -37 10.5 -62.5t22.5 -39t39.5 -18.5t44 -6t56.5 1t56 2q178 0 285 87t174 263l19 -14l-68 -367h-715q-74 0 -235.5 -14.5t-235.5 -14.5q-154 0 -276.5 50.5t-196.5 126t-122 175t-65.5 187.5t-17.5 172q0 176 52.5 314.5t129 217t174 131t176.5 70t148 17.5 q66 0 197 -9.5t197 -9.5h735l96 -319l-18 -9l-41 61l-39 56q-10 14 -35 46t-38 43l-39 32q-26 20 -47 28l-53 17q-32 10 -67 13t-78 3h-225v-653h113q182 2 239.5 38t83.5 189h17v-503h-17q-20 154 -73.5 197.5t-223.5 43.5h-139v-542zM1163 446v687q0 141 -99 206.5 t-261 65.5q-211 0 -365.5 -187.5t-154.5 -543.5q0 -283 135 -479.5t360 -196.5q109 0 181.5 21.5t113.5 52t60.5 94t24.5 121t5 159.5z" />
<glyph unicode="&#x153;" horiz-adv-x="1679" d="M782 446q0 68 -13 139.5t-42 143.5t-85 117t-130 45t-130 -45t-85 -117t-42 -143.5t-13 -139.5q0 -96 21.5 -191t86 -177t162.5 -82t162.5 82t86 177t21.5 191zM1638 307q-51 -147 -157.5 -237t-253.5 -90q-242 0 -361 184q-119 -186 -354 -187q-195 0 -314.5 134.5 t-119.5 331t119.5 330.5t314.5 134q113 0 208 -50t154 -144q61 90 154.5 142t202.5 52q150 0 258 -79.5t139 -223.5h-674q-10 -61 -10 -112q0 -174 91 -283t261 -109q106 0 193.5 57.5t130.5 153.5zM1430 627q-6 111 -59.5 186.5t-160.5 75.5q-96 0 -162.5 -80t-84.5 -182 h467z" />
<glyph unicode="&#x178;" horiz-adv-x="1206" d="M897 1649q0 -37 -28.5 -65.5t-67.5 -28.5t-66.5 28.5t-27.5 65.5q0 35 28.5 64.5t65.5 29.5t66.5 -29.5t29.5 -64.5zM506 1649q0 -37 -28.5 -65.5t-67.5 -28.5q-37 0 -65.5 28.5t-28.5 65.5q0 35 28.5 64.5t65.5 29.5t66.5 -29.5t29.5 -64.5zM1202 1393q-55 -6 -87 -41 t-87 -127l-336 -576v-499q0 -76 43 -103t117 -27v-20h-477v20q33 0 56.5 5.5t47 18.5t35.5 40t12 66v491l-327 573q-51 90 -91 132.5t-98 46.5v20h482v-20q-88 0 -119 -19.5t-31 -56.5q0 -33 74 -160l262 -452l231 395q94 162 95 217q0 76 -121 76v20h319v-20z" />
<glyph unicode="&#x2c6;" horiz-adv-x="569" d="M606 1008l-10 -11l-309 230l-310 -230l-10 11l301 358h37z" />
<glyph unicode="&#x2000;" horiz-adv-x="950" />
<glyph unicode="&#x2001;" horiz-adv-x="1902" />
<glyph unicode="&#x2002;" horiz-adv-x="950" />
<glyph unicode="&#x2003;" horiz-adv-x="1902" />
<glyph unicode="&#x2004;" horiz-adv-x="632" />
<glyph unicode="&#x2005;" horiz-adv-x="475" />
<glyph unicode="&#x2006;" horiz-adv-x="315" />
<glyph unicode="&#x2007;" horiz-adv-x="315" />
<glyph unicode="&#x2008;" horiz-adv-x="237" />
<glyph unicode="&#x2009;" horiz-adv-x="378" />
<glyph unicode="&#x200a;" horiz-adv-x="104" />
<glyph unicode="&#x2010;" horiz-adv-x="634" d="M563 455h-491v112h491v-112z" />
<glyph unicode="&#x2011;" horiz-adv-x="634" d="M563 455h-491v112h491v-112z" />
<glyph unicode="&#x2012;" horiz-adv-x="634" d="M563 455h-491v112h491v-112z" />
<glyph unicode="&#x2013;" horiz-adv-x="819" d="M823 401h-821v113h821v-113z" />
<glyph unicode="&#x2014;" horiz-adv-x="1636" d="M1638 401h-1636v113h1636v-113z" />
<glyph unicode="&#x2018;" horiz-adv-x="425" d="M354 993q0 -41 -29.5 -69.5t-74.5 -28.5q-76 0 -117 62.5t-41 146.5q0 180 207 323l14 -18q-63 -43 -106 -102.5t-43 -118.5q0 -74 96 -92q94 -17 94 -103z" />
<glyph unicode="&#x2019;" horiz-adv-x="425" d="M334 1223q0 -180 -207 -324l-14 19q150 100 149 221q0 43 -24.5 62.5t-71.5 27.5q-94 16 -94 104q0 41 29.5 70t74.5 29q76 0 117 -62.5t41 -146.5z" />
<glyph unicode="&#x201c;" horiz-adv-x="802" d="M733 993q0 -41 -29.5 -69.5t-74.5 -28.5q-76 0 -117 62.5t-41 146.5q0 180 205 323l14 -18q-63 -43 -105 -103.5t-42 -117.5q0 -74 94 -92q96 -17 96 -103zM354 993q0 -41 -29.5 -69.5t-74.5 -28.5q-74 0 -116 63.5t-42 145.5q0 180 207 323l14 -18q-63 -43 -106 -102.5 t-43 -118.5q0 -74 96 -92q94 -17 94 -103z" />
<glyph unicode="&#x201d;" horiz-adv-x="802" d="M713 1223q0 -178 -207 -324l-14 19q150 100 149 221q0 74 -96 90q-94 18 -94 104q0 43 28.5 71t75.5 28q74 0 116 -63.5t42 -145.5zM334 1223q0 -180 -207 -324l-14 19q150 100 149 221q0 43 -24.5 62.5t-71.5 27.5q-94 16 -94 104q0 41 29.5 70t74.5 29q76 0 117 -62.5 t41 -146.5z" />
<glyph unicode="&#x202f;" horiz-adv-x="378" />
<glyph unicode="&#x2039;" horiz-adv-x="1658" d="M901 1309q121 121 322 121q84 0 167 -39t83 -109q0 -33 -21.5 -54.5t-54.5 -21.5q-39 0 -84 51q-14 16 -37 50t-33 47q-25 35 -100 35q-104 0 -171 -85t-67 -194v-227h328q43 0 122 7t107 9v-756q0 -82 27 -102q16 -12 41 -14q18 -2 49 -7v-20h-387v20l53 7q27 2 43 14 q29 20 29 102v600q0 45 -17.5 58.5t-52.5 13.5h-342v-672q0 -82 33 -102q20 -10 51 -14q27 -2 72 -7v-20h-434v20q37 4 59 7q31 4 43 14q31 20 31 102v672h-422v-672q0 -82 33 -102q20 -10 51 -14q27 -2 72 -7v-20h-435v20q37 4 60 7q31 4 43 14q31 20 31 102v672h-146 l16 68h130q0 254 118.5 400.5t343.5 146.5q74 0 152 -31t94 -90zM760 883q0 190 67 323q-37 0 -82 51q-14 16 -36.5 50t-32.5 47q-25 35 -101 35q-104 0 -170.5 -85t-66.5 -194v-227h422z" />
<glyph unicode="&#x203a;" horiz-adv-x="1689" d="M1243 1430q166 0 250 -50v-1237q0 -78 27 -102q16 -12 41 -14q18 -2 49 -7v-20h-375v20l47 7q25 4 39 14q27 25 27 102v672h-449v-672q0 -82 33 -102q20 -10 51 -14q27 -2 72 -7v-20h-434v20q37 4 59 7q31 4 43 14q31 20 31 102v672h-416v-672q0 -82 33 -102 q20 -10 51 -14q27 -2 72 -7v-20h-435v20q37 4 60 7q31 4 43 14q31 20 31 102v672h-146l16 68h130q0 254 118.5 400.5t343.5 146.5q74 0 153 -33t95 -92q129 125 340 125zM1348 1212q0 82 -56.5 128t-140.5 46q-137 0 -196.5 -101t-59.5 -249v-153h453v329zM760 883 q0 41 1 73.5t2 55t6 46t7 34t10 30.5l11 26q2 5 15 28.5t15 29.5q-37 0 -82 51q-14 16 -36.5 50t-32.5 47q-25 35 -101 35q-104 0 -170.5 -85t-66.5 -194v-227h422z" />
<glyph unicode="&#x2044;" horiz-adv-x="342" d="M-238 4h-88l912 1399h84z" />
<glyph unicode="&#x205f;" horiz-adv-x="475" />
<glyph unicode="&#x20ac;" d="M938 31l-31 92q-131 -133 -293 -133q-186 0 -302.5 155.5t-137.5 436.5h-143v49h139v45q0 25 4 119h-143v49h149q37 246 158 392t287 146q145 0 278 -131l29 80h20v-387h-20q-16 156 -100 288t-207 132q-225 0 -279 -520h389v-49h-393q-4 -115 -4 -131v-33h397v-49h-393 q8 -92 24.5 -179.5t47 -182.5t85 -153.5t126.5 -58.5q111 0 192.5 103.5t114.5 289.5h24v-370h-18z" />
<glyph unicode="&#x2122;" horiz-adv-x="3330" d="M3209 0h-491v20q104 8 139 33t35 97v1101h-4l-549 -1251h-25l-573 1243h-4v-1093q0 -125 188 -130v-20h-403v20q90 0 136 26t46 104v1132q0 47 -26.5 72.5t-54.5 31t-81 7.5v20h301l547 -1198l528 1198h291v-20q-84 -6 -117.5 -35t-33.5 -113v-1095q0 -78 36.5 -104 t114.5 -26v-20zM1440 1073l-13 -6l-64 109.5t-71 115.5q-33 49 -65.5 69.5t-89.5 20.5h-324v-1232q0 -72 41 -98.5t150 -31.5v-20h-543v20q102 4 144 32t42 98v1232h-325q-57 0 -90 -21.5t-68 -68.5q-29 -41 -144 -223l-12 6l72 369q100 -31 170 -31h958q70 0 170 31z" />
<glyph unicode="&#xe000;" horiz-adv-x="885" d="M0 885h885v-885h-885v885z" />
<glyph unicode="&#xfb01;" horiz-adv-x="1132" d="M666 0v20l53 7q27 2 43 14q29 20 29 102v600q0 45 -17.5 58.5t-52.5 13.5h-383v-672q0 -82 33 -102q20 -10 51 -14q27 -2 72 -7v-20h-435v20q37 4 60 7q31 4 43 14q31 20 31 102v672h-146l16 68h130q0 254 118.5 400.5t343.5 146.5q84 0 167 -39t83 -109 q0 -33 -21.5 -54.5t-54.5 -21.5q-39 0 -84 51q-14 16 -36.5 50t-32.5 47q-25 35 -101 35q-104 0 -170.5 -85t-66.5 -194v-227h369q43 0 121.5 7t107.5 9v-756q0 -82 27 -102q16 -12 41 -14q18 -2 49 -7v-20h-387z" />
<glyph unicode="&#xfb02;" horiz-adv-x="1128" d="M674 0v20l47 7q25 4 39 14q27 25 26 102v672h-448v-672q0 -82 33 -102q20 -10 51 -14q27 -2 72 -7v-20h-435v20q37 4 60 7q31 4 43 14q31 20 31 102v672h-146l16 68h127q4 31 9.5 78t7.5 55q10 86 33 137q57 133 170.5 205t271.5 72q166 0 250 -50v-1237q0 -78 26 -102 q16 -12 41 -14q18 -2 50 -7v-20h-375zM786 1212q0 82 -56 128t-140 46q-137 0 -196.5 -101t-59.5 -249v-153h452v329z" />
<glyph unicode="&#xfb03;" horiz-adv-x="1648" d="M1464 1333q0 -39 -26.5 -70.5t-65.5 -31.5q-41 0 -70.5 30.5t-29.5 71.5q0 39 29.5 69t70.5 30q37 0 64.5 -31t27.5 -68zM1569 0h-381v20q76 4 97.5 25t21.5 96v502q0 82 -21.5 115t-89.5 41v10q147 43 260 100v-768q0 -74 21.5 -95t91.5 -26v-20zM1321 1282 q0 -78 -72 -78q-33 0 -49 20.5t-41 71.5q-41 96 -123 97q-70 0 -103.5 -62.5t-33.5 -152.5v-293h225q-16 -25 -26 -70h-199v-674q0 -76 26.5 -96t129.5 -25v-20h-439v20q86 4 110 25t24 96v674h-146l21 70h125v69q0 121 28.5 212t67.5 140.5t93 79t94 38t79 8.5 q100 0 154.5 -46.5t54.5 -103.5zM764 1282q0 -78 -72 -78q-33 0 -49 20.5t-41 71.5q-41 96 -123 97q-70 0 -103.5 -62.5t-33.5 -152.5v-293h225q-16 -25 -26 -70h-199v-674q0 -76 26.5 -96t129.5 -25v-20h-439v20q86 4 110 25t24 96v674h-146l21 70h125v69q0 121 28.5 212 t67.5 140.5t93 79t94 38t79 8.5q100 0 154.5 -46.5t54.5 -103.5z" />
<glyph unicode="&#xfb04;" horiz-adv-x="1626" d="M1560 0h-380v20q76 4 97 25t21 96v1016q0 92 -23.5 129t-92.5 41v14q45 10 90 24.5t96 34.5l80 30v-1289q0 -74 21.5 -95t90.5 -26v-20zM1321 1282q0 -78 -72 -78q-33 0 -49 20.5t-41 71.5q-41 96 -123 97q-70 0 -103.5 -62.5t-33.5 -152.5v-293h225q-16 -25 -26 -70 h-199v-674q0 -76 26.5 -96t129.5 -25v-20h-439v20q86 4 110 25t24 96v674h-146l21 70h125v69q0 121 28.5 212t67.5 140.5t93 79t94 38t79 8.5q100 0 154.5 -46.5t54.5 -103.5zM764 1282q0 -78 -72 -78q-33 0 -49 20.5t-41 71.5q-41 96 -123 97q-70 0 -103.5 -62.5 t-33.5 -152.5v-293h225q-16 -25 -26 -70h-199v-674q0 -76 26.5 -96t129.5 -25v-20h-439v20q86 4 110 25t24 96v674h-146l21 70h125v69q0 121 28.5 212t67.5 140.5t93 79t94 38t79 8.5q100 0 154.5 -46.5t54.5 -103.5z" />
</font>
</defs>
</svg>
