<?xml version="1.0" standalone="no"?>
<!DOCTYPE svg PUBLIC "-//W3C//DTD SVG 1.1//EN" "http://www.w3.org/Graphics/SVG/1.1/DTD/svg11.dtd" >
<svg xmlns="http://www.w3.org/2000/svg">
<metadata>
This is a custom SVG webfont generated by Font Squirrel.
Copyright   : Copyright c 1988 1990 1991 1994 Adobe Systems Incorporated  All Rights Reserved
</metadata>
<defs>
<font id="webfontF8UpzdJC" horiz-adv-x="1024" >
<font-face units-per-em="2048" ascent="1638" descent="-410" />
<missing-glyph horiz-adv-x="452" />
<glyph unicode=" "  horiz-adv-x="452" />
<glyph unicode="&#x09;" horiz-adv-x="452" />
<glyph unicode="&#xa0;" horiz-adv-x="452" />
<glyph unicode="!" horiz-adv-x="681" d="M754 1346q0 -55 -189 -500l-215 -512l-22 4q37 174 112.5 485.5l106.5 448.5q12 49 20 75.5t34 55.5t63 29q90 0 90 -86zM381 82q0 -41 -33 -73t-74 -32t-70.5 32t-29.5 73t29.5 71.5t70.5 30.5t74 -30.5t33 -71.5z" />
<glyph unicode="&#x22;" horiz-adv-x="819" d="M864 1352q0 -35 -20 -88l-193 -476l-26 7l96 499q25 123 82 123q61 1 61 -65zM569 1352q0 -35 -20 -88l-193 -476l-26 7l94 499q25 123 84 123q61 1 61 -65z" />
<glyph unicode="&#x26;" horiz-adv-x="1658" d="M1602 1176q0 -166 -123 -252t-312 -86v-9q72 -20 131.5 -111t59.5 -216q0 -217 -166 -374t-479 -157q-285 0 -439.5 162t-154.5 375q0 313 252 418q-37 82 -37 168q0 143 98 240.5t232 97.5q139 0 208.5 -72t69.5 -164q0 -82 -57.5 -142.5t-139.5 -60.5q-68 0 -109.5 41 t-41.5 107q0 49 22.5 75.5t47.5 26.5q12 0 18 -8q-33 -29 -33 -68q0 -45 29 -67.5t70 -22.5q61 0 97 40t36 93q0 82 -57.5 135.5t-166.5 53.5q-123 0 -204.5 -90t-81.5 -219q0 -92 35 -154q53 14 96 14q121 0 121 -86q0 -31 -24 -52t-62 -21q-86 0 -150 106 q-154 -68 -154 -276q0 -70 33 -156t100.5 -175t193.5 -149.5t286 -60.5q207 0 345 112.5t138 299.5q0 139 -72.5 236t-207.5 97q-123 0 -205 -73.5t-82 -196.5q0 -84 51 -146.5t150 -62.5q68 0 117.5 41t49.5 109q0 61 -30.5 96t-87.5 35q-29 0 -43.5 -12.5t-14.5 -24.5 q0 -10 25 -17q14 -2 22.5 -6t16.5 -16t8 -33q0 -25 -20.5 -41t-47.5 -16q-31 0 -48 21.5t-17 54.5q0 49 37 83.5t84 34.5q68 0 107.5 -43t39.5 -114q0 -82 -57 -134.5t-141 -52.5q-109 0 -175.5 77t-66.5 202q0 109 54 193.5t145 134.5q94 51 245 51q139 0 211 26 q80 29 123 91.5t43 138.5q0 74 -45 126t-129 52q-74 0 -114 -41t-40 -102q0 -25 9 -25q4 0 23.5 26.5t49.5 26.5q27 0 43.5 -17.5t16.5 -43.5q0 -33 -18.5 -54.5t-53.5 -21.5q-47 0 -73.5 33t-26.5 76q0 68 52 120t132 52q111 0 172.5 -70.5t61.5 -185.5zM580 870 q0 49 -80 50q-37 0 -78 -11q49 -72 106 -71q52 -1 52 32z" />
<glyph unicode="'" horiz-adv-x="450" d="M569 1352q0 -35 -20 -88l-193 -476l-26 7l94 499q25 123 84 123q61 1 61 -65z" />
<glyph unicode="," horiz-adv-x="512" d="M313 35q0 -213 -290 -350l-11 28q102 49 152.5 105.5t50.5 101.5q0 63 -45 84q-94 47 -94 113q0 39 26.5 67.5t77.5 28.5q53 0 93 -51t40 -127z" />
<glyph unicode="-" horiz-adv-x="681" d="M606 567l-28 -112h-474l29 112h473z" />
<glyph unicode="." horiz-adv-x="512" d="M303 90q0 -45 -33.5 -79t-79.5 -34q-43 0 -74.5 35t-31.5 78t31.5 78t74.5 35q45 0 79 -34t34 -79z" />
<glyph unicode="0" d="M1016 1087q0 -121 -59.5 -306t-153.5 -363t-234.5 -306t-279.5 -128q-106 0 -159.5 75.5t-53.5 243.5q0 180 109.5 435t276.5 449.5t310 194.5q125 0 184.5 -83t59.5 -212zM872 1065q0 266 -163 266q-104 0 -220 -161.5t-193 -397t-77 -436.5q0 -291 162 -291 q102 0 198.5 128t158 302t98 338t36.5 252z" />
<glyph unicode="1" d="M872 1395l-428 -1245q-16 -41 -16 -72q0 -55 145 -58l-6 -20h-471l8 20q88 0 128 26t67 108l371 1091l-228 -65l9 24q283 119 409 201z" />
<glyph unicode="2" d="M1008 1147q0 -170 -174 -328q-59 -53 -261 -185t-301 -239q-123 -133 -166 -260h447q90 0 130 23.5t79 115.5l18 -6l-110 -268h-664q37 115 85 203t145 196q76 86 232.5 224.5t213.5 197.5q170 170 170 328q0 84 -52 133t-138 49q-98 0 -200 -69.5t-175 -184.5l-23 17 q184 289 477 288q119 0 193 -60t74 -175z" />
<glyph unicode="3" d="M940 1151q0 -207 -346 -381q100 -23 150.5 -100.5t50.5 -184.5q0 -182 -162 -341.5t-408 -159.5q-137 0 -208.5 52t-71.5 105q0 27 18.5 46.5t44.5 19.5q47 0 94 -80q68 -115 183 -115q150 0 256 144.5t106 300.5q0 111 -57.5 170t-165.5 59q-20 0 -113 -20l-6 26 q170 53 287 121q201 115 201 301q0 92 -45.5 146.5t-131.5 54.5q-156 0 -335 -215l-21 22q213 260 455 260q113 0 169 -69.5t56 -161.5z" />
<glyph unicode="4" d="M1063 1382l-334 -884h176l-35 -95h-174l-155 -403h-160l154 403h-480l35 111l791 868h182zM891 1337h-6l-758 -839h438z" />
<glyph unicode="5" d="M1044 1425l-81 -200h-535l-137 -394q96 18 172 19q188 0 299.5 -90t111.5 -275q0 -203 -175 -352t-377 -149q-55 0 -122 13t-128.5 51t-61.5 93q0 29 17.5 48.5t46.5 19.5q45 0 82 -62q49 -80 92 -109.5t112 -29.5q145 0 256 136.5t111 308.5q0 250 -303 249 q-104 0 -215 -24l235 684h457q86 0 123 63h20z" />
<glyph unicode="6" d="M1055 1366q-174 -82 -349.5 -238.5t-267.5 -316.5l6 -2q98 72 203 72q115 0 183.5 -70t68.5 -215q0 -51 -22.5 -126t-70.5 -160t-112.5 -157.5t-157 -120.5t-192.5 -48q-88 0 -143.5 54t-73.5 126t-18 162q0 348 256 641t679 415zM752 659q0 82 -36 135.5t-114 53.5 q-86 0 -163 -75t-124 -182.5t-73.5 -215t-26.5 -182.5q0 -184 131 -185q96 0 193.5 124t155 275.5t57.5 251.5z" />
<glyph unicode="7" d="M999 1319q-119 -164 -274.5 -478.5t-284.5 -701.5q-4 -16 -17 -53l-15 -43q-14 -43 -86 -43q-66 0 -66 41q0 94 215 491.5t428 694.5h-471q-102 0 -137 -74l-17 -33l-26 2l135 310h23q-4 -16 -5 -23q0 -47 105 -47h493v-43z" />
<glyph unicode="8" d="M1049 1118q0 -123 -90.5 -208t-299.5 -156q94 -104 138.5 -187.5t44.5 -193.5q0 -168 -126 -278.5t-294 -110.5q-188 0 -282.5 94t-94.5 215q0 160 108.5 249t340.5 177q-49 57 -86 121q-57 94 -58 198q0 135 103.5 239.5t279.5 104.5q150 0 233 -75.5t83 -188.5z M946 1133q0 94 -57.5 159.5t-169.5 65.5q-133 0 -198.5 -76t-65.5 -176q0 -59 34.5 -128t66.5 -108t85 -98q305 117 305 361zM725 309q0 121 -78 230l-41 52l-50 58l-42 47q-80 -31 -133 -59.5t-106.5 -72.5t-80 -106.5t-26.5 -142.5q0 -135 67.5 -222t198.5 -87 q129 0 210 89t81 214z" />
<glyph unicode="9" d="M1004 1032q0 -338 -269.5 -639t-668.5 -407l-9 16q168 66 361.5 240t269.5 327l-6 2q-94 -82 -217 -82q-119 0 -184.5 71t-65.5 204q0 113 68.5 254t199.5 252.5t277 111.5q125 0 184.5 -96t59.5 -254zM897 1169q0 86 -33 136.5t-96 50.5q-80 0 -176 -100.5t-164 -250 t-68 -280.5q0 -104 43 -156.5t111 -52.5q92 0 184.5 111.5t145.5 264t53 277.5z" />
<glyph unicode=":" horiz-adv-x="512" d="M492 768q0 -45 -34 -79t-79 -34q-43 0 -75 35t-32 78t32 78t75 35q45 0 79 -34t34 -79zM287 90q0 -45 -34 -79t-79 -34q-43 0 -74.5 35t-31.5 78t31.5 78t74.5 35q45 0 79 -34t34 -79z" />
<glyph unicode=";" horiz-adv-x="512" d="M492 768q0 -45 -34 -79t-79 -34q-43 0 -75 35t-32 78t32 78t75 35q45 0 79 -34t34 -79zM305 35q0 -213 -291 -350l-10 28q102 49 152.5 105.5t50.5 101.5q0 63 -45 84q-94 47 -94 113q0 39 26.5 67.5t77.5 28.5q53 0 93 -51t40 -127z" />
<glyph unicode="?" horiz-adv-x="909" d="M1010 1122q0 -152 -79 -235.5t-259 -169.5l-279 -133q-125 -59 -125 -158q0 -47 33 -78t78 -31q55 0 131 52l14 -19q-82 -61 -162 -61q-76 0 -121.5 51t-45.5 129q0 150 182 240l321 159q102 51 158.5 116t56.5 167q0 117 -70.5 186.5t-193.5 69.5q-113 0 -182.5 -59.5 t-69.5 -159.5q0 -59 36 -103.5t102 -44.5q23 0 40 6.5t23 13.5t6 11q0 14 -31 31q-43 20 -43 65q0 31 25 53.5t55 22.5q39 0 61.5 -25.5t22.5 -68.5q0 -61 -48 -96t-116 -35q-66 0 -111.5 46t-45.5 126q0 94 73.5 168t219.5 74q156 0 250 -94.5t94 -215.5zM281 82 q0 -41 -33 -73t-74 -32t-70.5 32t-29.5 73t29.5 71.5t70.5 30.5t74 -30.5t33 -71.5z" />
<glyph unicode="A" horiz-adv-x="1218" d="M1090 20l-7 -20h-458l8 20q84 4 112.5 30t28.5 97q0 51 -12 224l-17 204h-376l-148 -337q-33 -76 -33 -127q0 -82 152 -91l-6 -20h-406l4 20q96 10 144.5 53.5t111.5 184.5l484 1081q139 96 149 97q20 0 23 -33l104 -1278q6 -63 42.5 -84t99.5 -21zM741 608l-49 680h-6 l-303 -680h358z" />
<glyph unicode="B" horiz-adv-x="1255" d="M1221 1094q0 -162 -116 -271.5t-323 -128.5v-4q137 -20 221 -103t84 -218q0 -160 -118.5 -264.5t-321.5 -104.5h-686l6 20q78 0 115 20.5t59 90.5l338 1059q25 86 25 110q0 92 -131 93l6 20h440q193 0 297.5 -83.5t104.5 -235.5zM1061 1128q0 121 -60.5 191t-179.5 70 q-113 0 -139 -93l-180 -581q66 -4 135 -4q125 0 212 33.5t131 95t62.5 131t18.5 157.5zM922 424q0 135 -84 195.5t-222 60.5h-124l-203 -653h223q207 0 308.5 104.5t101.5 292.5z" />
<glyph unicode="C" horiz-adv-x="1241" d="M1348 1389l-113 -414l-23 4q10 86 11 147q0 276 -205 277q-66 0 -133.5 -30t-131 -86t-104.5 -99t-94 -107q-295 -360 -295 -741q0 -154 66.5 -246t201.5 -92q176 0 320.5 146.5t236.5 361.5l23 -6l-156 -496h-18l-21 139q-201 -176 -421 -176q-188 0 -300 104.5 t-112 293.5q0 160 78 347t201.5 346t295.5 264.5t344 105.5q178 0 289 -97l47 58z" />
<glyph unicode="D" horiz-adv-x="1433" d="M1397 791q0 -360 -235.5 -575.5t-596.5 -215.5h-608l6 20q74 0 115 20.5t61 88.5l346 1085q16 49 17 97q0 78 -137 82l6 20h407q276 0 447.5 -170.5t171.5 -451.5zM1176 1086.5q-41 121.5 -138.5 210.5t-232.5 89q-61 0 -87 -25.5t-44 -84.5l-316 -1018 q-37 -117 -36 -154q0 -78 184 -77q324 0 518 235q193 233 193 561q0 142 -41 263.5z" />
<glyph unicode="E" horiz-adv-x="1335" d="M1315 1182h-15l-145 204h-448l-201 -659h119q193 0 256 40t120 202h23l-152 -588h-22q10 51 10 111q0 109 -53 156.5t-193 47.5h-118l-144 -463q-31 -96 -30 -137q0 -70 137 -69h542l207 270h23l-70 -297h-1220l6 20q111 2 143.5 22.5t56.5 98.5l334 1069q25 76 25 103 q0 45 -38 62.5t-138 17.5l6 20h950z" />
<glyph unicode="F" horiz-adv-x="1232" d="M1346 1143h-19l-180 243h-447l-184 -628h127q170 0 236.5 41t130.5 184h20l-172 -584h-18q12 86 12 140q0 109 -41 148.5t-176 39.5h-129l-139 -471q-31 -102 -31 -145q0 -90 149 -91l-6 -20h-512l6 20q82 0 118 18.5t56 86.5l340 1130q12 37 13 58q0 78 -156 80l6 20 h950z" />
<glyph unicode="G" horiz-adv-x="1343" d="M1354 1360l-74 -414h-25q2 25 2 72q0 385 -305 385q-158 0 -316.5 -150.5t-255.5 -373t-97 -426.5q0 -84 16 -159t51 -143.5t101.5 -108.5t156.5 -40q133 0 201 51t98 158l43 147q18 59 19 111q0 72 -142 72v22h473v-22q-31 0 -54 -5.5t-40.5 -19.5t-27 -22.5t-20.5 -37 t-13 -37.5t-15 -48l-77 -260q-59 -49 -187.5 -94.5t-287.5 -45.5q-227 0 -351.5 136.5t-124.5 367.5q0 164 70 336t184.5 309t274.5 224.5t327 87.5q166 0 330 -117l51 49z" />
<glyph unicode="H" horiz-adv-x="1505" d="M1632 1413l-6 -20q-86 0 -121 -25t-51 -80l-324 -1048q-33 -100 -32 -138q0 -45 29.5 -61t103.5 -21l-6 -20h-492l4 20q92 2 126 28t61 108l176 542h-606l-146 -467q-29 -86 -29 -131t28 -62.5t99 -17.5l-4 -20h-487l8 20q96 2 128 28t59 108l327 1028q27 80 27 119 q0 47 -25.5 68.5t-103.5 21.5l4 20h485l-6 -20q-141 0 -176 -103l-178 -557h606l145 451q25 78 25 116q0 92 -133 93l4 20h481z" />
<glyph unicode="I" horiz-adv-x="737" d="M864 1413l-6 -20q-88 0 -124 -23.5t-54 -79.5l-332 -1059q-29 -86 -29 -131t28 -62.5t99 -17.5l-4 -20h-487l8 20q96 2 128 28t59 108l327 1028q27 80 27 119q0 47 -25.5 68.5t-103.5 21.5l4 20h485z" />
<glyph unicode="J" horiz-adv-x="874" d="M1028 1413l-6 -20q-104 0 -140 -30t-69 -136l-276 -893q-57 -188 -144.5 -275.5t-238.5 -87.5q-129 0 -187.5 51.5t-58.5 120.5q0 37 21.5 59.5t54.5 22.5q47 0 67.5 -26.5t30.5 -79.5q20 -94 53 -113q14 -8 33 -8q45 0 80 35q37 39 84 194l293 938q37 125 37 160 q0 37 -36 52.5t-134 15.5l6 20h530z" />
<glyph unicode="K" horiz-adv-x="1288" d="M1395 1413l-6 -20q-78 0 -128.5 -28t-140.5 -118l-442 -428l344 -688q33 -66 67.5 -88.5t92.5 -22.5l-6 -20h-469l6 20q76 0 106.5 12.5t30.5 45.5q0 27 -31 92l-262 532l-86 -81l-121 -441q-18 -68 -18 -94q0 -66 139 -66l-6 -20h-490l7 20q90 0 125.5 28t62.5 116 l299 1032q27 94 27 131q0 41 -29 53.5t-117 12.5l4 20h494l-6 -20q-100 0 -129 -17.5t-47 -83.5l-181 -622l512 499q121 119 121 168q0 31 -23.5 41.5t-80.5 14.5l4 20h377z" />
<glyph unicode="L" horiz-adv-x="1206" d="M1182 322l-90 -322h-1115l7 20q76 0 114.5 25t59.5 96l309 1051q29 104 29 129q0 41 -32 56.5t-106 15.5l7 20h479l-4 -20q-94 0 -127 -28t-62 -126l-293 -1040q-18 -68 -18 -99q0 -74 149 -73h447l227 295h19z" />
<glyph unicode="M" horiz-adv-x="1691" d="M1774 1413l-5 -20q-66 -2 -96.5 -36t-56.5 -124l-324 -1059q-12 -39 -12 -65q0 -47 33 -68t133 -21l-4 -20h-539l4 20q82 0 122 18.5t58 74.5l365 1153h-6l-832 -1266h-22l41 1253h-6l-375 -850q-98 -223 -98 -292q0 -90 147 -91l-4 -20h-393l4 20q96 2 147 67t142 271 l364 824q41 92 41 127q0 84 -137 84l6 20h330l-37 -1112h6l733 1112h271z" />
<glyph unicode="N" horiz-adv-x="1421" d="M1593 1413l-6 -20q-119 0 -164 -47.5t-100 -225.5l-350 -1120h-29l-424 1266h-6l-244 -803q-59 -197 -59 -287q0 -82 42 -117.5t157 -38.5l-7 -20h-489l4 20q113 2 165 59.5t105 231.5l308 1010q-12 39 -41 53.5t-111 18.5l4 20h297l377 -1128h6l221 721q49 156 49 260 q0 68 -37.5 96.5t-127.5 30.5l6 20h454z" />
<glyph unicode="O" horiz-adv-x="1355" d="M1325 889q0 -154 -56.5 -315.5t-153.5 -296t-241.5 -220.5t-304.5 -86q-225 0 -340.5 162t-115.5 402q0 152 60 311.5t161.5 289.5t247 213t301.5 83q215 0 328.5 -158t113.5 -385zM1186 1092q0 133 -72 223t-203 90q-133 0 -261 -119t-212 -285.5t-135 -339t-51 -286.5 q0 -160 65.5 -268.5t217.5 -108.5q141 0 269 125t208 303t127 358.5t47 307.5z" />
<glyph unicode="P" horiz-adv-x="1196" d="M1235 1073q0 -123 -50 -206t-141.5 -124t-185.5 -56t-217 -15q-90 0 -156 12l-143 -477q-20 -68 -20 -105q0 -82 153 -82l-6 -20h-512l4 20q94 0 130 23t61 100l311 1002q35 109 35 147q0 57 -36 79t-108 22l8 20h467q170 0 288 -88t118 -252zM1055 1104q0 283 -289 282 h-72l-198 -673q29 0 75.5 -5.5t67.5 -5.5q186 0 301 106t115 296z" />
<glyph unicode="Q" horiz-adv-x="1355" d="M1325 891q0 -291 -178 -565.5t-438 -335.5l-402 -140v-4q12 2 39 2q45 0 143.5 -16t151.5 -16q68 0 105.5 3t86 17t81 47t59.5 86h18q-35 -133 -116.5 -221t-204.5 -88q-115 0 -308 111q-84 49 -110 49q-76 0 -76 -76q0 -4 2 -13.5t2 -15.5q0 -55 -49 -55q-51 0 -51 61 q0 43 41 72t133 62l326 112v6h-19q-207 0 -327.5 156t-120.5 408q0 152 60 311.5t161.5 288.5t247 212t301.5 83q215 0 328.5 -158t113.5 -383zM1186 1092q0 133 -72 223t-203 90q-106 0 -211.5 -78t-183.5 -198.5t-139.5 -261t-93 -270.5t-31.5 -220q0 -160 65.5 -269.5 t217.5 -109.5q141 0 269 125t208 303t127 358.5t47 307.5z" />
<glyph unicode="R" horiz-adv-x="1288" d="M1229 20l-4 -20h-310l-319 684h-107l-120 -444q-23 -80 -23 -136q0 -45 35 -63t131 -21l-6 -20h-531l7 20q96 0 133 26t59 108l291 1048q20 72 20 109q0 45 -33.5 63.5t-109.5 18.5l6 20h410q455 0 454 -323q0 -172 -128 -271.5t-316 -120.5l246 -514q49 -100 89 -132 t126 -32zM1036 1104q0 135 -66.5 208.5t-199.5 73.5q-57 0 -84 -36.5t-49 -120.5l-139 -516q281 0 409.5 85t128.5 306z" />
<glyph unicode="S" horiz-adv-x="1073" d="M1130 1384l-88 -419h-22q4 61 4 92q0 160 -67.5 254t-206.5 94q-111 0 -169.5 -71.5t-58.5 -190.5q0 -18 2 -37t7 -37l10 -33q4 -14 15 -35.5l16.5 -33t20.5 -35.5l21 -34l25 -38q18 -29 25 -39l52 -79q36 -54 47 -72l37 -61q26 -42 35 -61l24 -54q15 -35 20 -60l9 -57 q5 -33 5 -66q0 -162 -118 -251t-308 -89q-250 0 -408 213l-67 -80h-19l121 404h21q-6 -41 -6 -109q0 -174 89 -287.5t255 -113.5q129 0 199.5 78t70.5 211q0 18 -3 36.5t-5 34t-11.5 37t-13.5 33.5t-18 38l-21 36l-24 40q-18 30 -26 40l-31 45q-24 35 -29 45 q-66 98 -97.5 152.5t-58.5 129t-27 144.5q0 141 100.5 237.5t272.5 96.5q180 0 324 -111l59 63h16z" />
<glyph unicode="T" horiz-adv-x="1196" d="M1440 1413l-90 -297h-17l-49 270h-328l-358 -1126q-33 -98 -33 -151q0 -43 40 -64.5t155 -24.5l-6 -20h-607l5 20q94 0 155.5 25t83.5 100l393 1241h-329l-234 -264h-18l88 291h1149z" />
<glyph unicode="U" horiz-adv-x="1400" d="M1618 1413l-6 -20q-106 -8 -143 -48t-95 -192l-297 -768q-31 -78 -56.5 -132t-65.5 -111.5t-86 -91.5t-112.5 -56.5t-148.5 -22.5q-182 0 -283.5 94.5t-101.5 276.5q0 111 70 324l176 536q29 90 29 115q0 41 -32 57.5t-99 18.5l6 20h481l-6 -20q-90 0 -126 -25t-58 -92 l-230 -686q-53 -164 -53 -277q0 -129 63.5 -221t198.5 -92q258 0 387 344l260 690q63 174 64 258q0 51 -36 76t-136 25l4 20h432z" />
<glyph unicode="V" horiz-adv-x="1093" d="M1327 1413l-8 -20q-90 -6 -135 -41t-90 -127l-531 -1121l-139 -133h-18l-78 1274q-6 96 -30 120t-105 28l6 20h448l-6 -20q-84 0 -114.5 -22.5t-30.5 -90.5v-25l61 -1075h8l430 916q66 139 66 196.5t-31 78t-117 22.5l7 20h407z" />
<glyph unicode="W" horiz-adv-x="1638" d="M1888 1413l-6 -20q-98 -2 -149.5 -50.5t-118.5 -189.5l-565 -1182h-56l-57 920h-6l-481 -920h-56l-92 1340q-4 82 -129 82l6 20h436l-6 -20q-78 -2 -111.5 -32t-33.5 -99v-23l67 -1034h9l391 756l-10 245q-4 113 -38 149t-120 38l6 20h453l-7 -20q-80 -4 -111.5 -25.5 t-31.5 -91.5v-19l57 -1048h9l391 833q84 178 84 246q0 51 -35 76t-125 29l6 20h430z" />
<glyph unicode="X" horiz-adv-x="1310" d="M1479 1413l-4 -20q-57 -10 -119 -61.5t-189 -180.5l-391 -401l260 -615q29 -68 69 -91.5t109 -23.5l-8 -20h-524l6 20q184 0 184 72q0 37 -43 135l-182 410l-350 -369q-96 -100 -96 -162q0 -86 205 -86l-7 -20h-514l4 18q82 2 149.5 54.5t229.5 220.5l367 379l-242 567 q-37 86 -71.5 114.5t-116.5 39.5l6 20h514l-8 -20q-88 -4 -126 -20.5t-38 -53.5q0 -43 33 -117l176 -418l258 263q178 182 178 270q0 39 -35 55.5t-121 20.5l7 20h430z" />
<glyph unicode="Y" horiz-adv-x="1228" d="M1475 1413l-5 -20q-59 -2 -106 -35t-113 -101l-516 -542l-153 -541q-14 -51 -15 -76q0 -47 39 -62.5t144 -15.5l-7 -20h-571l6 20q94 2 140.5 26t72.5 108l184 579l-213 484q-49 109 -85.5 140.5t-108.5 35.5l6 20h498l-6 -20q-158 0 -158 -80q0 -20 24 -80l205 -469 l334 350q119 125 119 199q0 78 -146 80l7 20h424z" />
<glyph unicode="Z" horiz-adv-x="1218" d="M1260 1413l-1049 -1386h504q92 0 146 25.5t102 78.5l155 184h25l-127 -315h-1028l1050 1386h-503l-244 -274l-25 4l117 297h877z" />
<glyph unicode="`" horiz-adv-x="569" d="M629 1016l-8 -12l-312 223q-43 31 -43 69q0 29 17.5 50.5t46.5 21.5q43 0 73 -45z" />
<glyph unicode="a" horiz-adv-x="993" d="M1001 885l-210 -443q-145 -305 -146 -354q0 -25 25 -25q20 0 88.5 63.5t118.5 133.5l18 -18q-90 -123 -183.5 -194t-150.5 -71q-53 0 -53 50q0 78 84 276h-6q-217 -326 -422 -326q-72 0 -116 40t-44 112q0 123 114.5 308.5t288 327.5t312.5 142q90 0 129 -78l29 56h124z M795 790.5q0 90.5 -88 90.5q-94 0 -231.5 -151.5t-234 -333t-96.5 -271.5q0 -104 82 -105q88 0 226.5 155t240 340t101.5 275.5z" />
<glyph unicode="b" horiz-adv-x="901" d="M907 727q0 -168 -179 -403.5t-325 -300.5q-100 -45 -208 -46q-160 0 -160 156q0 68 57 199l420 954q23 51 23 72q0 49 -125 49l6 23l293 2l-320 -730h4q154 205 307 205q207 0 207 -180zM770 780q0 100 -90 101q-70 0 -162 -83t-147 -177q-223 -383 -224 -529 q0 -88 93 -88q127 0 249 158q94 121 187.5 309t93.5 309z" />
<glyph unicode="c" horiz-adv-x="690" d="M762 815q0 -86 -78 -86q-53 0 -53 57q0 16 11 35t11 25q0 35 -32 35q-133 0 -271 -224q-59 -100 -128.5 -279t-69.5 -267q0 -45 21.5 -75t64.5 -30q137 0 299 250l20 -10q-154 -268 -342 -269q-88 0 -138 50.5t-50 138.5q0 139 88 313t232.5 301t285.5 127 q66 0 97.5 -27.5t31.5 -64.5z" />
<glyph unicode="d" horiz-adv-x="989" d="M1221 1432l-476 -1094q-88 -201 -92 -240v-6q0 -23 23 -22q16 0 80.5 60t120.5 132l16 -18q-102 -129 -191.5 -198t-146.5 -69q-16 0 -30.5 13.5t-14.5 32.5q0 74 86 262h-6q-141 -184 -227.5 -246t-206.5 -62q-70 0 -109 45.5t-39 108.5q0 139 109.5 323.5t273.5 318.5 t303 134q90 0 152 -53l194 444q18 45 19 74q0 20 -26.5 28.5t-102.5 8.5l8 23h283zM803 784q0 96 -98 97q-92 0 -227.5 -153t-230.5 -334t-95 -271q0 -102 90 -103q96 0 234 168t232.5 351.5t94.5 244.5z" />
<glyph unicode="e" horiz-adv-x="690" d="M731 791q0 -139 -203 -263q-125 -76 -309 -163q-53 -137 -53 -226q0 -111 80 -110q74 0 144.5 58t156.5 179l18 -14q-180 -274 -356 -275q-84 0 -132 54.5t-48 142.5q0 117 84 289t220 308t261 136q66 0 101.5 -31.5t35.5 -84.5zM639 803q0 78 -61 78q-70 0 -164.5 -130 t-184.5 -352q139 70 274.5 186t135.5 218z" />
<glyph unicode="f" horiz-adv-x="544" d="M893 1346q0 -29 -18.5 -46.5t-47.5 -17.5q-47 0 -65 49q-23 57 -66 58q-86 0 -147 -220l-86 -288h203l-17 -47h-198l-146 -478q-123 -399 -240.5 -597.5t-285.5 -198.5q-51 0 -81 25.5t-30 60.5q0 33 19.5 48t44.5 15q45 0 69 -65q14 -41 58 -41q92 0 188 317l275 914 h-172l16 47h168q47 147 59 180q61 170 149.5 270.5t229.5 100.5q53 0 87 -23.5t34 -62.5z" />
<glyph unicode="g" horiz-adv-x="780" d="M920 844q0 -20 -15.5 -35.5t-36.5 -15.5q-25 0 -53 16q-37 20 -55 20q-33 0 -64 -30q16 -41 17 -99q0 -152 -112 -291t-263 -139q-55 0 -84 9q-20 -2 -65.5 -38t-45.5 -62.5t19.5 -44t75.5 -38.5q43 -16 154.5 -46t166.5 -56q135 -66 135 -189q0 -113 -126 -179t-296 -66 q-160 0 -283.5 54t-123.5 146q0 80 91 137.5t216 90.5v4q-111 39 -111 119q0 18 4.5 34.5t16.5 32t18 24.5t29 25.5t29 21.5t34.5 22.5t32.5 19.5q-109 68 -108 229q0 139 109.5 263t291.5 124q111 0 166 -84q88 76 164 76q72 0 72 -55zM621 770q0 51 -27 81t-76 30 q-80 0 -155.5 -85t-115.5 -188.5t-40 -177.5q0 -59 28.5 -95t79.5 -36q76 0 151 91t115 200.5t40 179.5zM616 -244q0 49 -34.5 82t-110.5 62q-8 4 -260 77q-119 -35 -177.5 -85t-58.5 -128q0 -88 91.5 -133t201.5 -45q152 0 250 48t98 122z" />
<glyph unicode="h" horiz-adv-x="901" d="M866 829q0 -47 -27.5 -118.5t-109.5 -247.5q-147 -317 -147 -363q0 -27 20 -26q55 0 207 176l18 -17q-78 -88 -117.5 -129t-105 -84t-123.5 -43q-16 0 -31.5 16.5t-15.5 37.5q0 66 166 430q127 281 127 317q0 49 -41 49q-68 0 -186.5 -139t-233.5 -336 q-113 -193 -170 -352h-131l545 1247q27 57 27 96q0 35 -33 47.5t-107 14.5l11 25h313l-430 -953h6q100 160 234.5 295t236.5 135q98 0 98 -78z" />
<glyph unicode="i" horiz-adv-x="536" d="M588 1339.5q0 -36.5 -30 -64.5t-66.5 -28t-66.5 29t-30 63.5t30 63.5t66.5 29t66.5 -28t30 -64.5zM496 848q0 -76 -179 -453q-127 -270 -127 -305q0 -25 21 -24q57 0 203 186l16 -14q-43 -55 -68.5 -85t-72.5 -79t-94.5 -73t-94.5 -24q-55 0 -55 68q0 14 3 29.5t11.5 41 t16.5 45.5l26 60l31 68l40 86l46 98q129 281 129 332q0 23 -12 22q-31 0 -103.5 -75.5t-119.5 -139.5l-17 17q86 119 178.5 198.5t167.5 79.5q54 0 54 -59z" />
<glyph unicode="j" horiz-adv-x="505" d="M625 1341.5q0 -36.5 -29 -63.5t-66 -27q-35 0 -64.5 28t-29.5 62.5t30 62.5t64 28q37 0 66 -27t29 -63.5zM504 856q0 -41 -41 -133l-316 -719q-37 -84 -66.5 -141.5t-81.5 -137t-116.5 -122.5t-134.5 -43q-66 0 -94.5 26.5t-28.5 59.5q0 27 15.5 45t44.5 18q47 0 71 -51 q25 -55 58 -55q47 0 94 100q6 16 72 170l339 813q39 96 39 113q0 29 -20 28q-10 0 -43 -28.5t-85 -87t-104 -127.5l-18 18q223 305 358 305q58 0 58 -51z" />
<glyph unicode="k" horiz-adv-x="860" d="M893 784q0 -84 -99.5 -163.5t-328.5 -163.5q12 -115 31.5 -203t38 -128t32.5 -40q41 0 131 131l23 -14q-143 -215 -238 -215q-57 0 -96 170q-16 76 -43 260l-53 -12l-174 -406h-127q33 84 309 715q270 621 270 655q0 29 -112 35l10 22l266 5l-336 -781h9 q96 127 194 188.5t176 61.5q53 0 85 -32t32 -85zM770 725q0 94 -92 94q-98 0 -207 -125t-168 -258q201 51 334 131t133 158z" />
<glyph unicode="l" horiz-adv-x="538" d="M713 1432l-465 -1139q-63 -156 -64 -191q0 -25 25 -24q23 0 88 66.5t125 148.5l22 -21q-96 -135 -197.5 -215t-164.5 -80q-51 0 -51 58q0 43 51 162l436 1063q29 72 29 96q0 49 -109 49l11 25z" />
<glyph unicode="m" horiz-adv-x="1413" d="M1374 817q0 -43 -21.5 -104.5t-42.5 -107.5l-89 -183q-137 -276 -138 -324q0 -8 9.5 -15t15.5 -7q25 0 82 52t108 122l19 -14q-80 -109 -171 -184t-153 -75q-25 0 -43 15.5t-18 48.5q0 63 151 369q94 193 125 263t31 111q0 43 -41 43q-70 0 -189.5 -141t-244.5 -360 q-90 -156 -166 -326h-127l176 401q129 297 129 381q0 16 -10 30.5t-31 14.5q-72 0 -184.5 -136t-222.5 -333q-125 -219 -172 -358h-131l178 410q141 332 141 387q0 31 -22 30q-49 0 -207 -227l-19 14q190 293 316 293q61 0 61 -69q0 -80 -133 -383h8q119 199 245 325.5 t236 126.5q84 0 84 -80q0 -113 -137 -405h6l98 140l82 113t84.5 101.5t75.5 66.5t84 51t82 13q86 0 86 -90z" />
<glyph unicode="n" horiz-adv-x="966" d="M928 815q0 -68 -162 -403q-133 -274 -133 -318q0 -25 26 -24q49 0 191 174l18 -15q-111 -141 -185.5 -196.5t-141.5 -55.5q-25 0 -39.5 18.5t-14.5 43.5q0 51 150 367q135 285 147 337q4 18 4 35q0 49 -36 49q-82 0 -209 -149.5t-246 -368.5q-92 -172 -143 -309h-129 q35 92 174 403q145 326 145 392q0 31 -20 30q-51 0 -211 -227l-17 14q193 295 322 295q51 0 51 -76q0 -88 -139 -389h6q291 465 498 465q94 0 94 -92z" />
<glyph unicode="o" horiz-adv-x="851" d="M793 596q0 -123 -65.5 -265.5t-187.5 -248t-257 -105.5q-117 0 -171.5 87.5t-54.5 216.5q0 121 69 265t192.5 252.5t256.5 108.5q218 0 218 -311zM692 737q0 150 -110 150q-86 0 -189.5 -149.5t-169 -327t-65.5 -271.5q0 -141 100 -141q84 0 188.5 132t175 308t70.5 299z " />
<glyph unicode="p" horiz-adv-x="968" d="M913 598q0 -133 -54 -253t-133 -197.5t-166 -124t-159 -46.5q-121 0 -198 70l-80 -209q-59 -156 -60 -186q0 -39 30 -55.5t116 -16.5l-8 -20h-455l6 20q86 2 121 26.5t59 88.5l435 1116q-141 -68 -273 -201l-16 19q141 162 307 229l78 203l151 49l-82 -213q61 12 97 12 q284 0 284 -311zM780 633q0 231 -194 231l-68 -12l-303 -776q63 -68 160 -68q106 0 204.5 119t149.5 262.5t51 243.5z" />
<glyph unicode="q" horiz-adv-x="886" d="M903 881l-463 -1190q-12 -29 -12 -56q0 -31 33 -40t119 -15l-7 -20h-460l4 22q90 4 121.5 16.5t50.5 61.5l196 490h-6q-133 -168 -260 -168q-92 0 -135 69.5t-43 169.5q0 125 80 286t212 280.5t261 119.5q63 0 97 -23.5t57 -76.5l30 74h125zM707 768q0 51 -26 84t-75 33 q-90 0 -206.5 -161t-193.5 -349.5t-77 -280.5q0 -41 22.5 -64.5t59.5 -23.5q96 0 192.5 99.5t160 232.5t103.5 255t40 175z" />
<glyph unicode="r" horiz-adv-x="768" d="M883 805q0 -29 -22.5 -55.5t-51.5 -26.5q-55 0 -74 74q-10 45 -57 45q-59 0 -145.5 -108.5t-155.5 -250.5q-23 -47 -219 -483h-140q14 37 185 412q158 356 157 387q0 29 -26 28q-55 0 -209 -184l-14 16q84 106 171 177t150 71q55 0 55 -84q0 -57 -75 -217h6 q176 301 346 301q53 0 86 -25.5t33 -76.5z" />
<glyph unicode="s" horiz-adv-x="643" d="M647 795q0 -25 -21.5 -43.5t-45.5 -18.5q-47 0 -86 70q-33 57 -97 57q-57 0 -82.5 -49t-25.5 -109q0 -82 86 -213q102 -156 102 -237q0 -111 -79 -193t-203 -82q-76 0 -128.5 14.5t-75 38t-31.5 44t-9 41.5q0 66 63 65q33 0 50.5 -20.5t35.5 -67.5q14 -35 43 -59.5 t66 -24.5q74 0 119 44t45 118q0 47 -20.5 90t-69.5 119q-88 141 -88 239q0 115 83.5 202t196.5 87q82 0 127 -32.5t45 -79.5z" />
<glyph unicode="t" horiz-adv-x="561" d="M696 881l-14 -47h-197q-23 -61 -176 -402q-150 -332 -149 -348q0 -25 22 -25q27 0 100.5 59.5t131.5 129.5l20 -21q-96 -109 -193.5 -179.5t-162.5 -70.5q-59 0 -60 68q0 39 146 365q158 352 182 424h-145l16 47h150l69 168l168 71l-96 -239h188z" />
<glyph unicode="u" horiz-adv-x="983" d="M958 885l-253 -609q-66 -154 -66 -190q0 -20 16 -20q61 0 226 229l18 -14q-98 -152 -181 -228t-132 -76q-76 0 -76 70q0 84 133 395h-6q-291 -465 -485 -465q-88 0 -89 99q0 10 2.5 21.5t7.5 27.5l10 30.5t14 38t18 40.5l22 49l24 52l26 59l30 63q145 311 145 342 q0 23 -20 22q-61 0 -201 -172l-18 21q82 100 169 168.5t152.5 68.5t65.5 -57q0 -47 -172 -414l-48 -100q-30 -61 -41 -87l-26 -61q-14 -35 -19 -57t-5 -43q0 -14 12 -25.5t25 -11.5q61 0 186 146.5t244 345.5q111 190 163 342h129z" />
<glyph unicode="v" horiz-adv-x="911" d="M922 737q0 -111 -42 -240.5t-115 -246.5t-186.5 -195t-240.5 -78q-111 0 -158 55.5t-47 129.5q0 70 27.5 132t95.5 152l252 336q-27 0 -113 5.5t-123 5.5q-74 0 -131 -34t-57 -104q0 -41 16 -41q10 0 15 17q12 37 49 37q61 0 61 -62q0 -31 -22.5 -51t-55.5 -20 q-43 0 -66.5 33.5t-23.5 80.5q0 100 95.5 173t240.5 73q27 0 104.5 -3t114.5 -3l-250 -373q-106 -160 -106 -289q0 -152 160 -151q100 0 188 61.5t142.5 150.5t85 181t30.5 162q0 74 -43 121l-15 15q-9 9 -14 15l-13 15q-7 8 -10 18t-5 23v8q0 25 17.5 43t43.5 18 q99 0 99 -170z" />
<glyph unicode="w" horiz-adv-x="1357" d="M1321 731q0 -154 -47 -297t-119 -241.5t-156 -157t-159 -58.5q-123 0 -174 185q-184 -184 -355 -185q-72 0 -110.5 54.5t-38.5 136.5q0 66 26.5 139.5t75.5 153.5t95 143l108 146q18 25 29 36q-23 -2 -93.5 -4t-127 -9t-99.5 -23q-100 -41 -100 -113q0 -41 16 -41 q10 0 14 16q12 37 50 37q61 0 61 -61q0 -31 -22.5 -51.5t-55.5 -20.5q-43 0 -66.5 34t-23.5 81q0 59 44 121.5t118 95.5q31 14 77 22.5t85 10.5t114.5 5t122.5 7q-193 -240 -261 -382t-68 -278q0 -160 125 -159q121 0 251 121q-25 100 -24 254q0 168 71.5 308t176.5 140 q41 0 68.5 -28.5t27.5 -88.5q0 -104 -58.5 -243.5t-154.5 -262.5q51 -201 158 -200q127 0 233.5 162.5t106.5 369.5q0 115 -58 148q-61 35 -61 86q0 27 18.5 47t59.5 20t70.5 -49t29.5 -127zM899 717q0 49 -20.5 78.5t-53.5 29.5q-53 0 -72.5 -70.5t-19.5 -240.5 q0 -109 23 -205q143 205 143 408z" />
<glyph unicode="x" horiz-adv-x="868" d="M883 791q0 -80 -37 -173l-23 7q23 53 23 110q0 94 -74 94q-47 0 -104.5 -71.5t-173.5 -261.5q78 -250 109.5 -334t56 -84t59.5 52t67 136l23 -8q-41 -106 -104.5 -193.5t-131.5 -87.5q-20 0 -38.5 28t-50 117t-74.5 253q-113 -197 -193 -297.5t-149 -100.5q-72 0 -72 115 q0 74 43 180l20 -4q-20 -88 -20 -102q0 -102 74 -103q51 0 112.5 81t171.5 268q-12 45 -65 206q-63 195 -94 195q-41 0 -138 -209l-20 14q127 289 219 289q43 0 83 -85t99 -294q123 205 196 292t134 87q72 1 72 -116z" />
<glyph unicode="y" horiz-adv-x="763" d="M731 803q0 -70 -43 -222.5t-119 -310.5q-180 -377 -307 -542q-129 -168 -280 -168q-49 0 -76 22.5t-27 57.5q0 25 15.5 41t39.5 16q33 0 69 -38t67 -38q70 0 145 88q51 59 75.5 135t24.5 215q0 387 -55 650q-25 119 -72 118q-27 0 -70.5 -71.5t-72.5 -184.5l-22 9 q45 164 109.5 245.5t135.5 81.5q66 0 92 -98q66 -248 66 -741h8q57 102 90 168.5t68 173t35 186.5q0 49 -13.5 132t-13.5 87q0 92 65.5 92t65.5 -104z" />
<glyph unicode="z" horiz-adv-x="882" d="M817 211q0 -100 -76.5 -167t-181.5 -67q-70 0 -120 30t-128 99q-76 68 -112 68q-78 0 -97 -96q-18 -82 -71 -82q-39 0 -39 39q0 25 35 55l606 590q-6 -2 -21 -2q-80 0 -168 88q-86 86 -163 86q-51 0 -84 -36t-33 -87q0 -53 76 -53q66 0 65 -55q0 -68 -82 -68 q-45 0 -75.5 41t-30.5 88q0 96 75.5 160.5t174.5 64.5q111 0 206 -100q55 -57 89 -57q53 0 67 79q12 72 53 72q33 0 33 -39q0 -45 -98 -143l-479 -473q8 2 24 2q27 0 52.5 -7.5t54 -24.5t44 -27.5t49.5 -38t42 -33.5q80 -63 143 -64q61 0 101 42t40 106q0 59 -45 59 q-16 0 -40.5 -6t-38.5 -6q-27 0 -46.5 18.5t-19.5 44.5q0 78 86 78q53 0 93 -50t40 -128z" />
<glyph unicode="&#xa8;" horiz-adv-x="569" d="M836 1143q0 -37 -29 -65.5t-68 -28.5t-66.5 28.5t-27.5 65.5q0 35 28.5 64.5t65.5 29.5t67 -29.5t30 -64.5zM444 1143q0 -37 -28.5 -65.5t-67.5 -28.5q-37 0 -65.5 28.5t-28.5 65.5q0 35 28.5 64.5t65.5 29.5t66.5 -29.5t29.5 -64.5z" />
<glyph unicode="&#xaa;" horiz-adv-x="993" d="M1001 885l-210 -443q-145 -305 -146 -354q0 -25 25 -25q20 0 88.5 63.5t118.5 133.5l18 -18q-90 -123 -183.5 -194t-150.5 -71q-53 0 -53 50q0 78 84 276h-6q-217 -326 -422 -326q-72 0 -116 40t-44 112q0 123 114.5 308.5t288 327.5t312.5 142q90 0 129 -78l29 56h124z M795 790.5q0 90.5 -88 90.5q-94 0 -231.5 -151.5t-234 -333t-96.5 -271.5q0 -104 82 -105q88 0 226.5 155t240 340t101.5 275.5z" />
<glyph unicode="&#xad;" horiz-adv-x="681" d="M606 567l-28 -112h-474l29 112h473z" />
<glyph unicode="&#xb2;" d="M1008 1147q0 -170 -174 -328q-59 -53 -261 -185t-301 -239q-123 -133 -166 -260h447q90 0 130 23.5t79 115.5l18 -6l-110 -268h-664q37 115 85 203t145 196q76 86 232.5 224.5t213.5 197.5q170 170 170 328q0 84 -52 133t-138 49q-98 0 -200 -69.5t-175 -184.5l-23 17 q184 289 477 288q119 0 193 -60t74 -175z" />
<glyph unicode="&#xb3;" d="M940 1151q0 -207 -346 -381q100 -23 150.5 -100.5t50.5 -184.5q0 -182 -162 -341.5t-408 -159.5q-137 0 -208.5 52t-71.5 105q0 27 18.5 46.5t44.5 19.5q47 0 94 -80q68 -115 183 -115q150 0 256 144.5t106 300.5q0 111 -57.5 170t-165.5 59q-20 0 -113 -20l-6 26 q170 53 287 121q201 115 201 301q0 92 -45.5 146.5t-131.5 54.5q-156 0 -335 -215l-21 22q213 260 455 260q113 0 169 -69.5t56 -161.5z" />
<glyph unicode="&#xb4;" horiz-adv-x="569" d="M840 1288q0 -47 -54 -76l-368 -204l-6 12l295 301q31 35 69 35q29 0 46.5 -19.5t17.5 -48.5z" />
<glyph unicode="&#xb8;" horiz-adv-x="569" d="M270 -268q0 -78 -66.5 -123t-187.5 -45q-82 0 -180 51l8 20q61 -31 164 -30q68 0 106 32.5t38 86.5q0 41 -29 65.5t-76 24.5q-59 0 -108 -21l-5 6l140 201h37l-91 -145q45 12 82 12q168 0 168 -135z" />
<glyph unicode="&#xb9;" d="M872 1395l-428 -1245q-16 -41 -16 -72q0 -55 145 -58l-6 -20h-471l8 20q88 0 128 26t67 108l371 1091l-228 -65l9 24q283 119 409 201z" />
<glyph unicode="&#xba;" horiz-adv-x="851" d="M793 596q0 -123 -65.5 -265.5t-187.5 -248t-257 -105.5q-117 0 -171.5 87.5t-54.5 216.5q0 121 69 265t192.5 252.5t256.5 108.5q218 0 218 -311zM692 737q0 150 -110 150q-86 0 -189.5 -149.5t-169 -327t-65.5 -271.5q0 -141 100 -141q84 0 188.5 132t175 308t70.5 299z " />
<glyph unicode="&#xc0;" horiz-adv-x="1218" d="M940 1483l-8 -10l-311 223q-43 31 -43 69q0 29 17 50.5t46 21.5q43 0 74 -45zM1090 20l-7 -20h-458l8 20q84 4 112.5 30t28.5 97q0 51 -12 224l-17 204h-376l-148 -337q-33 -76 -33 -127q0 -82 152 -91l-6 -20h-406l4 20q96 10 144.5 53.5t111.5 184.5l484 1081 q139 96 149 97q20 0 23 -33l104 -1278q6 -63 42.5 -84t99.5 -21zM741 608l-49 680h-6l-303 -680h358z" />
<glyph unicode="&#xc1;" horiz-adv-x="1218" d="M1028 1769q0 -47 -53 -75l-369 -205l-6 12l295 301q39 35 70 35q29 0 46 -19.5t17 -48.5zM1090 20l-7 -20h-458l8 20q84 4 112.5 30t28.5 97q0 51 -12 224l-17 204h-376l-148 -337q-33 -76 -33 -127q0 -82 152 -91l-6 -20h-406l4 20q96 10 144.5 53.5t111.5 184.5 l484 1081q139 96 149 97q20 0 23 -33l104 -1278q6 -63 42.5 -84t99.5 -21zM741 608l-49 680h-6l-303 -680h358z" />
<glyph unicode="&#xc2;" horiz-adv-x="1218" d="M1077 1479l-10 -11l-242 230l-336 -230l-10 11l342 358h37zM1090 20l-7 -20h-458l8 20q84 4 112.5 30t28.5 97q0 51 -12 224l-17 204h-376l-148 -337q-33 -76 -33 -127q0 -82 152 -91l-6 -20h-406l4 20q96 10 144.5 53.5t111.5 184.5l484 1081q139 96 149 97q20 0 23 -33 l104 -1278q6 -63 42.5 -84t99.5 -21zM741 608l-49 680h-6l-303 -680h358z" />
<glyph unicode="&#xc4;" horiz-adv-x="1218" d="M1083 1595.5q0 -36.5 -27.5 -65.5t-66.5 -29t-66.5 29t-27.5 65.5t28.5 66.5t65.5 30t65.5 -30t28.5 -66.5zM692 1595.5q0 -36.5 -27.5 -65.5t-66.5 -29t-66.5 29t-27.5 65.5t28.5 66.5t65.5 30t65.5 -30t28.5 -66.5zM1090 20l-7 -20h-458l8 20q84 4 112.5 30t28.5 97 q0 51 -12 224l-17 204h-376l-148 -337q-33 -76 -33 -127q0 -82 152 -91l-6 -20h-406l4 20q96 10 144.5 53.5t111.5 184.5l484 1081q139 96 149 97q20 0 23 -33l104 -1278q6 -63 42.5 -84t99.5 -21zM741 608l-49 680h-6l-303 -680h358z" />
<glyph unicode="&#xc7;" horiz-adv-x="1241" d="M1348 1389l-113 -414l-23 4q10 86 11 147q0 276 -205 277q-66 0 -133.5 -30t-131 -86t-104.5 -99t-94 -107q-295 -360 -295 -741q0 -154 66.5 -246t201.5 -92q176 0 320.5 146.5t236.5 361.5l23 -6l-156 -496h-18l-21 139q-201 -176 -421 -176h-31l-82 -131q45 12 82 13 q170 0 170 -136q0 -78 -67.5 -123t-186.5 -45q-84 0 -182 52l8 20q63 -31 164 -31q70 0 107.5 33t37.5 86q0 39 -28.5 64.5t-75.5 25.5q-59 0 -109 -20l-6 6l133 190q-160 16 -253 120t-93 274q0 160 78 347t201.5 346t295.5 264.5t344 105.5q178 0 289 -97l47 58z" />
<glyph unicode="&#xc8;" horiz-adv-x="1335" d="M1108 1526l-8 -13l-309 224q-43 29 -43 69q0 29 17 50.5t46 21.5q41 0 74 -45zM1315 1182h-15l-145 204h-448l-201 -659h119q193 0 256 40t120 202h23l-152 -588h-22q10 51 10 111q0 109 -53 156.5t-193 47.5h-118l-144 -463q-31 -96 -30 -137q0 -70 137 -69h542l207 270 h23l-70 -297h-1220l6 20q111 2 143.5 22.5t56.5 98.5l334 1069q25 76 25 103q0 45 -38 62.5t-138 17.5l6 20h950z" />
<glyph unicode="&#xc9;" horiz-adv-x="1335" d="M1294 1769q0 -47 -53 -75l-369 -205l-6 12l295 301q39 35 70 35q29 0 46 -19.5t17 -48.5zM1315 1182h-15l-145 204h-448l-201 -659h119q193 0 256 40t120 202h23l-152 -588h-22q10 51 10 111q0 109 -53 156.5t-193 47.5h-118l-144 -463q-31 -96 -30 -137q0 -70 137 -69 h542l207 270h23l-70 -297h-1220l6 20q111 2 143.5 22.5t56.5 98.5l334 1069q25 76 25 103q0 45 -38 62.5t-138 17.5l6 20h950z" />
<glyph unicode="&#xca;" horiz-adv-x="1335" d="M1227 1487l-10 -10l-242 229l-336 -229l-10 10l342 358h37zM1315 1182h-15l-145 204h-448l-201 -659h119q193 0 256 40t120 202h23l-152 -588h-22q10 51 10 111q0 109 -53 156.5t-193 47.5h-118l-144 -463q-31 -96 -30 -137q0 -70 137 -69h542l207 270h23l-70 -297h-1220 l6 20q111 2 143.5 22.5t56.5 98.5l334 1069q25 76 25 103q0 45 -38 62.5t-138 17.5l6 20h950z" />
<glyph unicode="&#xcb;" horiz-adv-x="1335" d="M1235 1595.5q0 -36.5 -27.5 -65.5t-66.5 -29t-68 29t-29 65.5t30 66.5t67 30t65.5 -30t28.5 -66.5zM844 1595.5q0 -36.5 -28 -65.5t-66.5 -29t-66.5 29t-28 65.5t29 66.5t65.5 30t65.5 -30t29 -66.5zM1315 1182h-15l-145 204h-448l-201 -659h119q193 0 256 40t120 202h23 l-152 -588h-22q10 51 10 111q0 109 -53 156.5t-193 47.5h-118l-144 -463q-31 -96 -30 -137q0 -70 137 -69h542l207 270h23l-70 -297h-1220l6 20q111 2 143.5 22.5t56.5 98.5l334 1069q25 76 25 103q0 45 -38 62.5t-138 17.5l6 20h950z" />
<glyph unicode="&#xcc;" horiz-adv-x="737" d="M797 1483l-9 -10l-311 223q-43 31 -43 69q0 29 17.5 50.5t46.5 21.5q43 0 73 -45zM864 1413l-6 -20q-88 0 -124 -23.5t-54 -79.5l-332 -1059q-29 -86 -29 -131t28 -62.5t99 -17.5l-4 -20h-487l8 20q96 2 128 28t59 108l327 1028q27 80 27 119q0 47 -25.5 68.5 t-103.5 21.5l4 20h485z" />
<glyph unicode="&#xcd;" horiz-adv-x="737" d="M950 1769q0 -47 -53 -75l-369 -205l-6 12l295 301q39 35 70 35q29 0 46 -19.5t17 -48.5zM864 1413l-6 -20q-88 0 -124 -23.5t-54 -79.5l-332 -1059q-29 -86 -29 -131t28 -62.5t99 -17.5l-4 -20h-487l8 20q96 2 128 28t59 108l327 1028q27 80 27 119q0 47 -25.5 68.5 t-103.5 21.5l4 20h485z" />
<glyph unicode="&#xce;" horiz-adv-x="737" d="M932 1481l-10 -11l-242 230l-336 -230l-10 11l342 358h37zM864 1413l-6 -20q-88 0 -124 -23.5t-54 -79.5l-332 -1059q-29 -86 -29 -131t28 -62.5t99 -17.5l-4 -20h-487l8 20q96 2 128 28t59 108l327 1028q27 80 27 119q0 47 -25.5 68.5t-103.5 21.5l4 20h485z" />
<glyph unicode="&#xcf;" horiz-adv-x="737" d="M924 1595.5q0 -36.5 -28 -65.5t-66.5 -29t-66.5 29t-28 65.5t29 66.5t65.5 30t65.5 -30t29 -66.5zM532 1595.5q0 -36.5 -27.5 -65.5t-66.5 -29t-66.5 29t-27.5 65.5t28.5 66.5t65.5 30t65.5 -30t28.5 -66.5zM864 1413l-6 -20q-88 0 -124 -23.5t-54 -79.5l-332 -1059 q-29 -86 -29 -131t28 -62.5t99 -17.5l-4 -20h-487l8 20q96 2 128 28t59 108l327 1028q27 80 27 119q0 47 -25.5 68.5t-103.5 21.5l4 20h485z" />
<glyph unicode="&#xd2;" horiz-adv-x="1355" d="M1094 1483l-9 -10l-311 223q-43 31 -43 69q0 29 17.5 50.5t46.5 21.5q43 0 73 -45zM1325 889q0 -154 -56.5 -315.5t-153.5 -296t-241.5 -220.5t-304.5 -86q-225 0 -340.5 162t-115.5 402q0 152 60 311.5t161.5 289.5t247 213t301.5 83q215 0 328.5 -158t113.5 -385z M1186 1092q0 133 -72 223t-203 90q-133 0 -261 -119t-212 -285.5t-135 -339t-51 -286.5q0 -160 65.5 -268.5t217.5 -108.5q141 0 269 125t208 303t127 358.5t47 307.5z" />
<glyph unicode="&#xd3;" horiz-adv-x="1355" d="M1294 1769q0 -47 -53 -75l-369 -205l-6 12l295 301q39 35 70 35q29 0 46 -19.5t17 -48.5zM1325 889q0 -154 -56.5 -315.5t-153.5 -296t-241.5 -220.5t-304.5 -86q-225 0 -340.5 162t-115.5 402q0 152 60 311.5t161.5 289.5t247 213t301.5 83q215 0 328.5 -158t113.5 -385 zM1186 1092q0 133 -72 223t-203 90q-133 0 -261 -119t-212 -285.5t-135 -339t-51 -286.5q0 -160 65.5 -268.5t217.5 -108.5q141 0 269 125t208 303t127 358.5t47 307.5z" />
<glyph unicode="&#xd4;" horiz-adv-x="1355" d="M1245 1489l-10 -10l-242 229l-336 -229l-10 10l342 358h37zM1325 889q0 -154 -56.5 -315.5t-153.5 -296t-241.5 -220.5t-304.5 -86q-225 0 -340.5 162t-115.5 402q0 152 60 311.5t161.5 289.5t247 213t301.5 83q215 0 328.5 -158t113.5 -385zM1186 1092q0 133 -72 223 t-203 90q-133 0 -261 -119t-212 -285.5t-135 -339t-51 -286.5q0 -160 65.5 -268.5t217.5 -108.5q141 0 269 125t208 303t127 358.5t47 307.5z" />
<glyph unicode="&#xd6;" horiz-adv-x="1355" d="M1231 1595.5q0 -36.5 -27.5 -65.5t-66.5 -29t-67 29t-28 65.5t29 66.5t66 30t65.5 -30t28.5 -66.5zM840 1595.5q0 -36.5 -28 -65.5t-66.5 -29t-66.5 29t-28 65.5t29 66.5t65.5 30t65.5 -30t29 -66.5zM1325 889q0 -154 -56.5 -315.5t-153.5 -296t-241.5 -220.5t-304.5 -86 q-225 0 -340.5 162t-115.5 402q0 152 60 311.5t161.5 289.5t247 213t301.5 83q215 0 328.5 -158t113.5 -385zM1186 1092q0 133 -72 223t-203 90q-133 0 -261 -119t-212 -285.5t-135 -339t-51 -286.5q0 -160 65.5 -268.5t217.5 -108.5q141 0 269 125t208 303t127 358.5 t47 307.5z" />
<glyph unicode="&#xd9;" horiz-adv-x="1400" d="M1190 1524l-6 -11l-312 224q-43 31 -43 69q0 29 17.5 50.5t46.5 21.5q41 0 74 -45zM1618 1413l-6 -20q-106 -8 -143 -48t-95 -192l-297 -768q-31 -78 -56.5 -132t-65.5 -111.5t-86 -91.5t-112.5 -56.5t-148.5 -22.5q-182 0 -283.5 94.5t-101.5 276.5q0 111 70 324 l176 536q29 90 29 115q0 41 -32 57.5t-99 18.5l6 20h481l-6 -20q-90 0 -126 -25t-58 -92l-230 -686q-53 -164 -53 -277q0 -129 63.5 -221t198.5 -92q258 0 387 344l260 690q63 174 64 258q0 51 -36 76t-136 25l4 20h432z" />
<glyph unicode="&#xda;" horiz-adv-x="1400" d="M1397 1769q0 -47 -54 -75l-368 -205l-6 12l295 301q39 35 69 35q29 0 46.5 -19.5t17.5 -48.5zM1618 1413l-6 -20q-106 -8 -143 -48t-95 -192l-297 -768q-31 -78 -56.5 -132t-65.5 -111.5t-86 -91.5t-112.5 -56.5t-148.5 -22.5q-182 0 -283.5 94.5t-101.5 276.5 q0 111 70 324l176 536q29 90 29 115q0 41 -32 57.5t-99 18.5l6 20h481l-6 -20q-90 0 -126 -25t-58 -92l-230 -686q-53 -164 -53 -277q0 -129 63.5 -221t198.5 -92q258 0 387 344l260 690q63 174 64 258q0 51 -36 76t-136 25l4 20h432z" />
<glyph unicode="&#xdb;" horiz-adv-x="1400" d="M1307 1487l-11 -10l-241 229l-336 -229l-10 10l342 358h36zM1618 1413l-6 -20q-106 -8 -143 -48t-95 -192l-297 -768q-31 -78 -56.5 -132t-65.5 -111.5t-86 -91.5t-112.5 -56.5t-148.5 -22.5q-182 0 -283.5 94.5t-101.5 276.5q0 111 70 324l176 536q29 90 29 115 q0 41 -32 57.5t-99 18.5l6 20h481l-6 -20q-90 0 -126 -25t-58 -92l-230 -686q-53 -164 -53 -277q0 -129 63.5 -221t198.5 -92q258 0 387 344l260 690q63 174 64 258q0 51 -36 76t-136 25l4 20h432z" />
<glyph unicode="&#xdc;" horiz-adv-x="1400" d="M1333 1595.5q0 -36.5 -27.5 -65.5t-66.5 -29t-66.5 29t-27.5 65.5t28.5 66.5t65.5 30t65.5 -30t28.5 -66.5zM942 1595.5q0 -36.5 -27.5 -65.5t-66.5 -29t-66.5 29t-27.5 65.5t28.5 66.5t65.5 30t65.5 -30t28.5 -66.5zM1618 1413l-6 -20q-106 -8 -143 -48t-95 -192 l-297 -768q-31 -78 -56.5 -132t-65.5 -111.5t-86 -91.5t-112.5 -56.5t-148.5 -22.5q-182 0 -283.5 94.5t-101.5 276.5q0 111 70 324l176 536q29 90 29 115q0 41 -32 57.5t-99 18.5l6 20h481l-6 -20q-90 0 -126 -25t-58 -92l-230 -686q-53 -164 -53 -277q0 -129 63.5 -221 t198.5 -92q258 0 387 344l260 690q63 174 64 258q0 51 -36 76t-136 25l4 20h432z" />
<glyph unicode="&#xdd;" horiz-adv-x="1228" d="M1278 1835q0 -47 -54 -76l-368 -204l-6 12l295 301q31 35 69 35q29 0 46.5 -19.5t17.5 -48.5zM1475 1413l-5 -20q-59 -2 -106 -35t-113 -101l-516 -542l-153 -541q-14 -51 -15 -76q0 -47 39 -62.5t144 -15.5l-7 -20h-571l6 20q94 2 140.5 26t72.5 108l184 579l-213 484 q-49 109 -85.5 140.5t-108.5 35.5l6 20h498l-6 -20q-158 0 -158 -80q0 -20 24 -80l205 -469l334 350q119 125 119 199q0 78 -146 80l7 20h424z" />
<glyph unicode="&#xe0;" horiz-adv-x="993" d="M926 1016l-8 -12l-312 223q-43 31 -43 69q0 29 17.5 50.5t46.5 21.5q43 0 73 -45zM1001 885l-210 -443q-145 -305 -146 -354q0 -25 25 -25q20 0 88.5 63.5t118.5 133.5l18 -18q-90 -123 -183.5 -194t-150.5 -71q-53 0 -53 50q0 78 84 276h-6q-217 -326 -422 -326 q-72 0 -116 40t-44 112q0 123 114.5 308.5t288 327.5t312.5 142q90 0 129 -78l29 56h124zM795 790.5q0 90.5 -88 90.5q-94 0 -231.5 -151.5t-234 -333t-96.5 -271.5q0 -104 82 -105q88 0 226.5 155t240 340t101.5 275.5z" />
<glyph unicode="&#xe1;" horiz-adv-x="993" d="M1044 1288q0 -47 -53 -76l-368 -204l-7 12l295 301q31 35 70 35q29 0 46 -19.5t17 -48.5zM1001 885l-210 -443q-145 -305 -146 -354q0 -25 25 -25q20 0 88.5 63.5t118.5 133.5l18 -18q-90 -123 -183.5 -194t-150.5 -71q-53 0 -53 50q0 78 84 276h-6q-217 -326 -422 -326 q-72 0 -116 40t-44 112q0 123 114.5 308.5t288 327.5t312.5 142q90 0 129 -78l29 56h124zM795 790.5q0 90.5 -88 90.5q-94 0 -231.5 -151.5t-234 -333t-96.5 -271.5q0 -104 82 -105q88 0 226.5 155t240 340t101.5 275.5z" />
<glyph unicode="&#xe2;" horiz-adv-x="993" d="M985 1008l-10 -11l-242 230l-336 -230l-10 11l342 358h37zM1001 885l-210 -443q-145 -305 -146 -354q0 -25 25 -25q20 0 88.5 63.5t118.5 133.5l18 -18q-90 -123 -183.5 -194t-150.5 -71q-53 0 -53 50q0 78 84 276h-6q-217 -326 -422 -326q-72 0 -116 40t-44 112 q0 123 114.5 308.5t288 327.5t312.5 142q90 0 129 -78l29 56h124zM795 790.5q0 90.5 -88 90.5q-94 0 -231.5 -151.5t-234 -333t-96.5 -271.5q0 -104 82 -105q88 0 226.5 155t240 340t101.5 275.5z" />
<glyph unicode="&#xe4;" horiz-adv-x="993" d="M1036 1143q0 -37 -28.5 -65.5t-67.5 -28.5t-66.5 28.5t-27.5 65.5q0 35 28.5 64.5t65.5 29.5t66.5 -29.5t29.5 -64.5zM645 1143q0 -37 -28.5 -65.5t-67.5 -28.5q-37 0 -65.5 28.5t-28.5 65.5q0 35 28.5 64.5t65.5 29.5t66.5 -29.5t29.5 -64.5zM1001 885l-210 -443 q-145 -305 -146 -354q0 -25 25 -25q20 0 88.5 63.5t118.5 133.5l18 -18q-90 -123 -183.5 -194t-150.5 -71q-53 0 -53 50q0 78 84 276h-6q-217 -326 -422 -326q-72 0 -116 40t-44 112q0 123 114.5 308.5t288 327.5t312.5 142q90 0 129 -78l29 56h124zM795 790.5 q0 90.5 -88 90.5q-94 0 -231.5 -151.5t-234 -333t-96.5 -271.5q0 -104 82 -105q88 0 226.5 155t240 340t101.5 275.5z" />
<glyph unicode="&#xe7;" horiz-adv-x="690" d="M762 815q0 -86 -78 -86q-53 0 -53 57q0 16 11 35t11 25q0 35 -32 35q-133 0 -271 -224q-59 -100 -128.5 -279t-69.5 -267q0 -45 21.5 -75t64.5 -30q137 0 299 250l20 -10q-154 -268 -342 -269h-16l-78 -122q45 12 82 12q170 0 170 -135q0 -78 -67.5 -123t-186.5 -45 q-84 0 -182 51l8 20q63 -31 164 -30q70 0 107.5 32.5t37.5 86.5q0 39 -28.5 64.5t-75.5 25.5q-59 0 -109 -21l-6 6l129 185q-137 29 -137 182q0 139 88 313t232.5 301t285.5 127q66 0 97.5 -27.5t31.5 -64.5z" />
<glyph unicode="&#xe8;" horiz-adv-x="690" d="M797 1016l-6 -12l-312 223q-43 29 -43 69q0 29 17.5 50.5t46.5 21.5q41 0 73 -45zM731 791q0 -139 -203 -263q-125 -76 -309 -163q-53 -137 -53 -226q0 -111 80 -110q74 0 144.5 58t156.5 179l18 -14q-180 -274 -356 -275q-84 0 -132 54.5t-48 142.5q0 117 84 289 t220 308t261 136q66 0 101.5 -31.5t35.5 -84.5zM639 803q0 78 -61 78q-70 0 -164.5 -130t-184.5 -352q139 70 274.5 186t135.5 218z" />
<glyph unicode="&#xe9;" horiz-adv-x="690" d="M897 1288q0 -47 -53 -76l-369 -204l-6 12l295 301q31 35 70 35q29 0 46 -19.5t17 -48.5zM731 791q0 -139 -203 -263q-125 -76 -309 -163q-53 -137 -53 -226q0 -111 80 -110q74 0 144.5 58t156.5 179l18 -14q-180 -274 -356 -275q-84 0 -132 54.5t-48 142.5q0 117 84 289 t220 308t261 136q66 0 101.5 -31.5t35.5 -84.5zM639 803q0 78 -61 78q-70 0 -164.5 -130t-184.5 -352q139 70 274.5 186t135.5 218z" />
<glyph unicode="&#xea;" horiz-adv-x="690" d="M901 1008l-10 -11l-242 230l-336 -230l-10 11l342 358h37zM731 791q0 -139 -203 -263q-125 -76 -309 -163q-53 -137 -53 -226q0 -111 80 -110q74 0 144.5 58t156.5 179l18 -14q-180 -274 -356 -275q-84 0 -132 54.5t-48 142.5q0 117 84 289t220 308t261 136 q66 0 101.5 -31.5t35.5 -84.5zM639 803q0 78 -61 78q-70 0 -164.5 -130t-184.5 -352q139 70 274.5 186t135.5 218z" />
<glyph unicode="&#xeb;" horiz-adv-x="690" d="M901 1143q0 -37 -28.5 -65.5t-67.5 -28.5t-66.5 28.5t-27.5 65.5q0 35 28.5 64.5t65.5 29.5t66.5 -29.5t29.5 -64.5zM510 1143q0 -37 -28.5 -65.5t-67.5 -28.5q-37 0 -66 28.5t-29 65.5q0 35 29 64.5t66 29.5t66.5 -29.5t29.5 -64.5zM731 791q0 -139 -203 -263 q-125 -76 -309 -163q-53 -137 -53 -226q0 -111 80 -110q74 0 144.5 58t156.5 179l18 -14q-180 -274 -356 -275q-84 0 -132 54.5t-48 142.5q0 117 84 289t220 308t261 136q66 0 101.5 -31.5t35.5 -84.5zM639 803q0 78 -61 78q-70 0 -164.5 -130t-184.5 -352q139 70 274.5 186 t135.5 218z" />
<glyph unicode="&#xec;" horiz-adv-x="536" d="M629 1016l-8 -12l-312 223q-43 31 -43 69q0 29 17.5 50.5t46.5 21.5q43 0 73 -45zM496 848q0 -76 -179 -453q-127 -270 -127 -305q0 -25 21 -24q57 0 203 186l16 -14q-43 -55 -68.5 -85t-72.5 -79t-94.5 -73t-94.5 -24q-55 0 -55 68q0 14 3 29.5t11.5 41t16.5 45.5l26 60 l31 68l40 86l46 98q129 281 129 332q0 23 -12 22q-31 0 -103.5 -75.5t-119.5 -139.5l-17 17q86 119 178.5 198.5t167.5 79.5q54 0 54 -59z" />
<glyph unicode="&#xed;" horiz-adv-x="536" d="M682 1288q0 -47 -53 -76l-369 -204l-6 12l295 301q31 35 69 35q29 0 46.5 -19.5t17.5 -48.5zM496 848q0 -76 -179 -453q-127 -270 -127 -305q0 -25 21 -24q57 0 203 186l16 -14q-43 -55 -68.5 -85t-72.5 -79t-94.5 -73t-94.5 -24q-55 0 -55 68q0 14 3 29.5t11.5 41 t16.5 45.5l26 60l31 68l40 86l46 98q129 281 129 332q0 23 -12 22q-31 0 -103.5 -75.5t-119.5 -139.5l-17 17q86 119 178.5 198.5t167.5 79.5q54 0 54 -59z" />
<glyph unicode="&#xee;" horiz-adv-x="536" d="M776 1008l-10 -11l-242 230l-336 -230l-12 11l342 358h37zM496 848q0 -76 -179 -453q-127 -270 -127 -305q0 -25 21 -24q57 0 203 186l16 -14q-43 -55 -68.5 -85t-72.5 -79t-94.5 -73t-94.5 -24q-55 0 -55 68q0 14 3 29.5t11.5 41t16.5 45.5l26 60l31 68l40 86l46 98 q129 281 129 332q0 23 -12 22q-31 0 -103.5 -75.5t-119.5 -139.5l-17 17q86 119 178.5 198.5t167.5 79.5q54 0 54 -59z" />
<glyph unicode="&#xef;" horiz-adv-x="536" d="M791 1143q0 -37 -28 -65.5t-67 -28.5t-66.5 28.5t-27.5 65.5q0 35 28.5 64.5t65.5 29.5t66 -29.5t29 -64.5zM399 1143q0 -37 -27.5 -65.5t-66.5 -28.5t-66.5 28.5t-27.5 65.5q0 35 28.5 64.5t65.5 29.5t65.5 -29.5t28.5 -64.5zM496 848q0 -76 -179 -453 q-127 -270 -127 -305q0 -25 21 -24q57 0 203 186l16 -14q-43 -55 -68.5 -85t-72.5 -79t-94.5 -73t-94.5 -24q-55 0 -55 68q0 14 3 29.5t11.5 41t16.5 45.5l26 60l31 68l40 86l46 98q129 281 129 332q0 23 -12 22q-31 0 -103.5 -75.5t-119.5 -139.5l-17 17 q86 119 178.5 198.5t167.5 79.5q54 0 54 -59z" />
<glyph unicode="&#xf2;" horiz-adv-x="851" d="M772 1016l-8 -12l-311 223q-43 31 -43 69q0 29 17 50.5t46 21.5q43 0 74 -45zM793 596q0 -123 -65.5 -265.5t-187.5 -248t-257 -105.5q-117 0 -171.5 87.5t-54.5 216.5q0 121 69 265t192.5 252.5t256.5 108.5q218 0 218 -311zM692 737q0 150 -110 150 q-86 0 -189.5 -149.5t-169 -327t-65.5 -271.5q0 -141 100 -141q84 0 188.5 132t175 308t70.5 299z" />
<glyph unicode="&#xf3;" horiz-adv-x="851" d="M860 1288q0 -47 -53 -76l-369 -204l-6 12l295 301q31 35 70 35q29 0 46 -19.5t17 -48.5zM793 596q0 -123 -65.5 -265.5t-187.5 -248t-257 -105.5q-117 0 -171.5 87.5t-54.5 216.5q0 121 69 265t192.5 252.5t256.5 108.5q218 0 218 -311zM692 737q0 150 -110 150 q-86 0 -189.5 -149.5t-169 -327t-65.5 -271.5q0 -141 100 -141q84 0 188.5 132t175 308t70.5 299z" />
<glyph unicode="&#xf4;" horiz-adv-x="851" d="M874 1008l-10 -11l-241 230l-336 -230l-11 11l342 358h37zM793 596q0 -123 -65.5 -265.5t-187.5 -248t-257 -105.5q-117 0 -171.5 87.5t-54.5 216.5q0 121 69 265t192.5 252.5t256.5 108.5q218 0 218 -311zM692 737q0 150 -110 150q-86 0 -189.5 -149.5t-169 -327 t-65.5 -271.5q0 -141 100 -141q84 0 188.5 132t175 308t70.5 299z" />
<glyph unicode="&#xf6;" horiz-adv-x="851" d="M877 1143q0 -37 -29 -65.5t-68 -28.5t-66.5 28.5t-27.5 65.5q0 35 28.5 64.5t65.5 29.5t67 -29.5t30 -64.5zM485 1143q0 -37 -28.5 -65.5t-67.5 -28.5q-37 0 -65.5 28.5t-28.5 65.5q0 35 28.5 64.5t65.5 29.5t66.5 -29.5t29.5 -64.5zM793 596q0 -123 -65.5 -265.5 t-187.5 -248t-257 -105.5q-117 0 -171.5 87.5t-54.5 216.5q0 121 69 265t192.5 252.5t256.5 108.5q218 0 218 -311zM692 737q0 150 -110 150q-86 0 -189.5 -149.5t-169 -327t-65.5 -271.5q0 -141 100 -141q84 0 188.5 132t175 308t70.5 299z" />
<glyph unicode="&#xf9;" horiz-adv-x="983" d="M903 1016l-8 -12l-311 223q-43 31 -43 69q0 29 17 50.5t46 21.5q43 0 74 -45zM958 885l-253 -609q-66 -154 -66 -190q0 -20 16 -20q61 0 226 229l18 -14q-98 -152 -181 -228t-132 -76q-76 0 -76 70q0 84 133 395h-6q-291 -465 -485 -465q-88 0 -89 99q0 10 2.5 21.5 t7.5 27.5l10 30.5t14 38t18 40.5l22 49l24 52l26 59l30 63q145 311 145 342q0 23 -20 22q-61 0 -201 -172l-18 21q82 100 169 168.5t152.5 68.5t65.5 -57q0 -47 -172 -414l-48 -100q-30 -61 -41 -87l-26 -61q-14 -35 -19 -57t-5 -43q0 -14 12 -25.5t25 -11.5q61 0 186 146.5 t244 345.5q111 190 163 342h129z" />
<glyph unicode="&#xfa;" horiz-adv-x="983" d="M983 1288q0 -47 -53 -76l-369 -204l-6 12l295 301q31 35 70 35q29 0 46 -19.5t17 -48.5zM958 885l-253 -609q-66 -154 -66 -190q0 -20 16 -20q61 0 226 229l18 -14q-98 -152 -181 -228t-132 -76q-76 0 -76 70q0 84 133 395h-6q-291 -465 -485 -465q-88 0 -89 99 q0 10 2.5 21.5t7.5 27.5l10 30.5t14 38t18 40.5l22 49l24 52l26 59l30 63q145 311 145 342q0 23 -20 22q-61 0 -201 -172l-18 21q82 100 169 168.5t152.5 68.5t65.5 -57q0 -47 -172 -414l-48 -100q-30 -61 -41 -87l-26 -61q-14 -35 -19 -57t-5 -43q0 -14 12 -25.5t25 -11.5 q61 0 186 146.5t244 345.5q111 190 163 342h129z" />
<glyph unicode="&#xfb;" horiz-adv-x="983" d="M999 1008l-10 -11l-241 230l-336 -230l-13 11l342 358h37zM958 885l-253 -609q-66 -154 -66 -190q0 -20 16 -20q61 0 226 229l18 -14q-98 -152 -181 -228t-132 -76q-76 0 -76 70q0 84 133 395h-6q-291 -465 -485 -465q-88 0 -89 99q0 10 2.5 21.5t7.5 27.5l10 30.5t14 38 t18 40.5l22 49l24 52l26 59l30 63q145 311 145 342q0 23 -20 22q-61 0 -201 -172l-18 21q82 100 169 168.5t152.5 68.5t65.5 -57q0 -47 -172 -414l-48 -100q-30 -61 -41 -87l-26 -61q-14 -35 -19 -57t-5 -43q0 -14 12 -25.5t25 -11.5q61 0 186 146.5t244 345.5 q111 190 163 342h129z" />
<glyph unicode="&#xfc;" horiz-adv-x="983" d="M1018 1143q0 -37 -27.5 -65.5t-66.5 -28.5t-67 28.5t-28 65.5q0 35 29 64.5t66 29.5t65.5 -29.5t28.5 -64.5zM627 1143q0 -37 -28 -65.5t-66.5 -28.5t-66.5 28.5t-28 65.5q0 35 29 64.5t65.5 29.5t65.5 -29.5t29 -64.5zM958 885l-253 -609q-66 -154 -66 -190 q0 -20 16 -20q61 0 226 229l18 -14q-98 -152 -181 -228t-132 -76q-76 0 -76 70q0 84 133 395h-6q-291 -465 -485 -465q-88 0 -89 99q0 10 2.5 21.5t7.5 27.5l10 30.5t14 38t18 40.5l22 49l24 52l26 59l30 63q145 311 145 342q0 23 -20 22q-61 0 -201 -172l-18 21 q82 100 169 168.5t152.5 68.5t65.5 -57q0 -47 -172 -414l-48 -100q-30 -61 -41 -87l-26 -61q-14 -35 -19 -57t-5 -43q0 -14 12 -25.5t25 -11.5q61 0 186 146.5t244 345.5q111 190 163 342h129z" />
<glyph unicode="&#xfd;" horiz-adv-x="763" d="M918 1311q0 -47 -54 -76l-368 -204l-6 12l295 301q31 35 69 35q29 0 46.5 -19.5t17.5 -48.5zM731 803q0 -70 -43 -222.5t-119 -310.5q-180 -377 -307 -542q-129 -168 -280 -168q-49 0 -76 22.5t-27 57.5q0 25 15.5 41t39.5 16q33 0 69 -38t67 -38q70 0 145 88 q51 59 75.5 135t24.5 215q0 387 -55 650q-25 119 -72 118q-27 0 -70.5 -71.5t-72.5 -184.5l-22 9q45 164 109.5 245.5t135.5 81.5q66 0 92 -98q66 -248 66 -741h8q57 102 90 168.5t68 173t35 186.5q0 49 -13.5 132t-13.5 87q0 92 65.5 92t65.5 -104z" />
<glyph unicode="&#xff;" horiz-adv-x="763" d="M801 1125q0 -37 -29 -65.5t-68 -28.5t-66.5 28.5t-27.5 65.5q0 35 28.5 64.5t65.5 29.5t67 -29.5t30 -64.5zM409 1125q0 -37 -28.5 -65.5t-67.5 -28.5q-37 0 -65.5 28.5t-28.5 65.5q0 35 28.5 64.5t65.5 29.5t66.5 -29.5t29.5 -64.5zM731 803q0 -70 -43 -222.5 t-119 -310.5q-180 -377 -307 -542q-129 -168 -280 -168q-49 0 -76 22.5t-27 57.5q0 25 15.5 41t39.5 16q33 0 69 -38t67 -38q70 0 145 88q51 59 75.5 135t24.5 215q0 387 -55 650q-25 119 -72 118q-27 0 -70.5 -71.5t-72.5 -184.5l-22 9q45 164 109.5 245.5t135.5 81.5 q66 0 92 -98q66 -248 66 -741h8q57 102 90 168.5t68 173t35 186.5q0 49 -13.5 132t-13.5 87q0 92 65.5 92t65.5 -104z" />
<glyph unicode="&#x152;" horiz-adv-x="2691" d="M2671 1182h-15l-145 204h-448l-201 -659h119q193 0 256 40t120 202h23l-152 -588h-22q10 51 10 111q0 109 -53 156.5t-193 47.5h-118l-144 -463q-31 -96 -30 -137q0 -70 137 -69h542l207 270h23l-70 -297h-1220l6 20q111 2 143.5 22.5t56.5 98.5l334 1069q25 76 25 103 q0 45 -38 62.5t-138 17.5l6 20h950zM1325 889q0 -154 -56.5 -315.5t-153.5 -296t-241.5 -220.5t-304.5 -86q-225 0 -340.5 162t-115.5 402q0 152 60 311.5t161.5 289.5t247 213t301.5 83q215 0 328.5 -158t113.5 -385zM1186 1092q0 133 -72 223t-203 90q-133 0 -261 -119 t-212 -285.5t-135 -339t-51 -286.5q0 -160 65.5 -268.5t217.5 -108.5q141 0 269 125t208 303t127 358.5t47 307.5z" />
<glyph unicode="&#x153;" horiz-adv-x="1542" d="M1583 791q0 -139 -203 -263q-125 -76 -309 -163q-53 -137 -53 -226q0 -111 80 -110q74 0 144.5 58t156.5 179l18 -14q-180 -274 -356 -275q-84 0 -132 54.5t-48 142.5q0 117 84 289t220 308t261 136q66 0 101.5 -31.5t35.5 -84.5zM1491 803q0 78 -61 78 q-70 0 -164.5 -130t-184.5 -352q139 70 274.5 186t135.5 218zM793 596q0 -123 -65.5 -265.5t-187.5 -248t-257 -105.5q-117 0 -171.5 87.5t-54.5 216.5q0 121 69 265t192.5 252.5t256.5 108.5q218 0 218 -311zM692 737q0 150 -110 150q-86 0 -189.5 -149.5t-169 -327 t-65.5 -271.5q0 -141 100 -141q84 0 188.5 132t175 308t70.5 299z" />
<glyph unicode="&#x178;" horiz-adv-x="1228" d="M1162 1649q0 -37 -29 -65.5t-68 -28.5t-66.5 28.5t-27.5 65.5q0 35 28.5 64.5t65.5 29.5t67 -29.5t30 -64.5zM770 1649q0 -37 -28.5 -65.5t-67.5 -28.5q-37 0 -65.5 28.5t-28.5 65.5q0 35 28.5 64.5t65.5 29.5t66.5 -29.5t29.5 -64.5zM1475 1413l-5 -20q-59 -2 -106 -35 t-113 -101l-516 -542l-153 -541q-14 -51 -15 -76q0 -47 39 -62.5t144 -15.5l-7 -20h-571l6 20q94 2 140.5 26t72.5 108l184 579l-213 484q-49 109 -85.5 140.5t-108.5 35.5l6 20h498l-6 -20q-158 0 -158 -80q0 -20 24 -80l205 -469l334 350q119 125 119 199q0 78 -146 80 l7 20h424z" />
<glyph unicode="&#x2c6;" horiz-adv-x="569" d="M797 1008l-11 -11l-241 230l-336 -230l-10 11l342 358h37z" />
<glyph unicode="&#x2000;" horiz-adv-x="950" />
<glyph unicode="&#x2001;" horiz-adv-x="1902" />
<glyph unicode="&#x2002;" horiz-adv-x="950" />
<glyph unicode="&#x2003;" horiz-adv-x="1902" />
<glyph unicode="&#x2004;" horiz-adv-x="632" />
<glyph unicode="&#x2005;" horiz-adv-x="475" />
<glyph unicode="&#x2006;" horiz-adv-x="315" />
<glyph unicode="&#x2007;" horiz-adv-x="315" />
<glyph unicode="&#x2008;" horiz-adv-x="237" />
<glyph unicode="&#x2009;" horiz-adv-x="378" />
<glyph unicode="&#x200a;" horiz-adv-x="104" />
<glyph unicode="&#x2010;" horiz-adv-x="681" d="M606 567l-28 -112h-474l29 112h473z" />
<glyph unicode="&#x2011;" horiz-adv-x="681" d="M606 567l-28 -112h-474l29 112h473z" />
<glyph unicode="&#x2012;" horiz-adv-x="681" d="M606 567l-28 -112h-474l29 112h473z" />
<glyph unicode="&#x2013;" d="M104 455v112h844v-112h-844z" />
<glyph unicode="&#x2014;" horiz-adv-x="2048" d="M104 455v112h1868v-112h-1868z" />
<glyph unicode="&#x2018;" horiz-adv-x="512" d="M653 1413q-102 -49 -152 -105.5t-50 -101.5q0 -63 45 -84q94 -47 94 -112q0 -39 -26.5 -68t-78.5 -29q-53 0 -93 51.5t-40 127.5q0 213 291 350z" />
<glyph unicode="&#x2019;" horiz-adv-x="512" d="M657 1251q0 -213 -290 -350l-11 29q102 49 152.5 105.5t50.5 101.5q0 63 -45 84q-94 47 -94 112q0 39 26.5 68t77.5 29q53 0 93 -51.5t40 -127.5z" />
<glyph unicode="&#x201c;" horiz-adv-x="858" d="M991 1413q-102 -49 -152.5 -105.5t-50.5 -101.5q0 -63 46 -84q94 -47 94 -112q0 -39 -27 -68t-78 -29q-53 0 -93 51.5t-40 127.5q0 213 291 350zM653 1413q-102 -49 -152 -105.5t-50 -101.5q0 -63 45 -84q94 -47 94 -112q0 -39 -26.5 -68t-78.5 -29q-53 0 -93 51.5 t-40 127.5q0 213 291 350z" />
<glyph unicode="&#x201d;" horiz-adv-x="872" d="M995 1251q0 -213 -290 -350l-11 29q102 49 152.5 105.5t50.5 101.5q0 63 -45 84q-94 47 -94 112q0 39 26.5 68t77.5 29q53 0 93 -51.5t40 -127.5zM657 1251q0 -213 -290 -350l-11 29q102 49 152.5 105.5t50.5 101.5q0 63 -45 84q-94 47 -94 112q0 39 26.5 68t77.5 29 q53 0 93 -51.5t40 -127.5z" />
<glyph unicode="&#x2026;" horiz-adv-x="1536" d="M1327 90q0 -45 -33.5 -79t-79.5 -34q-43 0 -74.5 35t-31.5 78t31.5 78t74.5 35q45 0 79 -34t34 -79zM815 90q0 -45 -33.5 -79t-79.5 -34q-43 0 -74.5 35t-31.5 78t31.5 78t74.5 35q45 0 79 -34t34 -79zM303 90q0 -45 -33.5 -79t-79.5 -34q-43 0 -74.5 35t-31.5 78 t31.5 78t74.5 35q45 0 79 -34t34 -79z" />
<glyph unicode="&#x202f;" horiz-adv-x="378" />
<glyph unicode="&#x205f;" horiz-adv-x="475" />
<glyph unicode="&#x2122;" horiz-adv-x="2887" d="M2970 1413l-5 -20q-66 -2 -96.5 -36t-56.5 -124l-324 -1059q-12 -39 -12 -65q0 -47 33 -68t133 -21l-4 -20h-539l4 20q82 0 122 18.5t58 74.5l365 1153h-6l-832 -1266h-22l41 1253h-6l-375 -850q-98 -223 -98 -292q0 -90 147 -91l-4 -20h-393l4 20q96 2 147 67t142 271 l364 824q41 92 41 127q0 84 -137 84l6 20h330l-37 -1112h6l733 1112h271zM1440 1413l-90 -297h-17l-49 270h-328l-358 -1126q-33 -98 -33 -151q0 -43 40 -64.5t155 -24.5l-6 -20h-607l5 20q94 0 155.5 25t83.5 100l393 1241h-329l-234 -264h-18l88 291h1149z" />
<glyph unicode="&#xe000;" horiz-adv-x="905" d="M0 905h905v-905h-905v905z" />
<glyph unicode="&#xfb01;" horiz-adv-x="1081" d="M1133 1339.5q0 -36.5 -30 -64.5t-66.5 -28t-66.5 29t-30 63.5t30 63.5t66.5 29t66.5 -28t30 -64.5zM1041 848q0 -76 -179 -453q-127 -270 -127 -305q0 -25 21 -24q57 0 203 186l16 -14q-43 -55 -68.5 -85t-72.5 -79t-94.5 -73t-94.5 -24q-55 0 -55 68q0 14 3 29.5 t11.5 41t16.5 45.5l26 60l31 68l40 86l46 98q129 281 129 332q0 23 -12 22q-31 0 -103.5 -75.5t-119.5 -139.5l-17 17q86 119 178.5 198.5t167.5 79.5q54 0 54 -59zM893 1346q0 -29 -18.5 -46.5t-47.5 -17.5q-47 0 -65 49q-23 57 -66 58q-86 0 -147 -220l-86 -288h203 l-17 -47h-198l-146 -478q-123 -399 -240.5 -597.5t-285.5 -198.5q-51 0 -81 25.5t-30 60.5q0 33 19.5 48t44.5 15q45 0 69 -65q14 -41 58 -41q92 0 188 317l275 914h-172l16 47h168q47 147 59 180q61 170 149.5 270.5t229.5 100.5q53 0 87 -23.5t34 -62.5z" />
<glyph unicode="&#xfb02;" horiz-adv-x="1083" d="M1258 1432l-465 -1139q-63 -156 -64 -191q0 -25 25 -24q23 0 88 66.5t125 148.5l22 -21q-96 -135 -197.5 -215t-164.5 -80q-51 0 -51 58q0 43 51 162l436 1063q29 72 29 96q0 49 -109 49l11 25zM893 1346q0 -29 -18.5 -46.5t-47.5 -17.5q-47 0 -65 49q-23 57 -66 58 q-86 0 -147 -220l-86 -288h203l-17 -47h-198l-146 -478q-123 -399 -240.5 -597.5t-285.5 -198.5q-51 0 -81 25.5t-30 60.5q0 33 19.5 48t44.5 15q45 0 69 -65q14 -41 58 -41q92 0 188 317l275 914h-172l16 47h168q47 147 59 180q61 170 149.5 270.5t229.5 100.5 q53 0 87 -23.5t34 -62.5z" />
<glyph unicode="&#xfb03;" horiz-adv-x="1626" d="M1678 1339.5q0 -36.5 -30 -64.5t-66.5 -28t-66.5 29t-30 63.5t30 63.5t66.5 29t66.5 -28t30 -64.5zM1586 848q0 -76 -179 -453q-127 -270 -127 -305q0 -25 21 -24q57 0 203 186l16 -14q-43 -55 -68.5 -85t-72.5 -79t-94.5 -73t-94.5 -24q-55 0 -55 68q0 14 3 29.5 t11.5 41t16.5 45.5l26 60l31 68l40 86l46 98q129 281 129 332q0 23 -12 22q-31 0 -103.5 -75.5t-119.5 -139.5l-17 17q86 119 178.5 198.5t167.5 79.5q54 0 54 -59zM1438 1346q0 -29 -18.5 -46.5t-47.5 -17.5q-47 0 -65 49q-23 57 -66 58q-86 0 -147 -220l-86 -288h203 l-17 -47h-198l-146 -478q-123 -399 -240.5 -597.5t-285.5 -198.5q-51 0 -81 25.5t-30 60.5q0 33 19.5 48t44.5 15q45 0 69 -65q14 -41 58 -41q92 0 188 317l275 914h-172l16 47h168q47 147 59 180q61 170 149.5 270.5t229.5 100.5q53 0 87 -23.5t34 -62.5zM893 1346 q0 -29 -18.5 -46.5t-47.5 -17.5q-47 0 -65 49q-23 57 -66 58q-86 0 -147 -220l-86 -288h203l-17 -47h-198l-146 -478q-123 -399 -240.5 -597.5t-285.5 -198.5q-51 0 -81 25.5t-30 60.5q0 33 19.5 48t44.5 15q45 0 69 -65q14 -41 58 -41q92 0 188 317l275 914h-172l16 47h168 q47 147 59 180q61 170 149.5 270.5t229.5 100.5q53 0 87 -23.5t34 -62.5z" />
<glyph unicode="&#xfb04;" horiz-adv-x="1628" d="M1803 1432l-465 -1139q-63 -156 -64 -191q0 -25 25 -24q23 0 88 66.5t125 148.5l22 -21q-96 -135 -197.5 -215t-164.5 -80q-51 0 -51 58q0 43 51 162l436 1063q29 72 29 96q0 49 -109 49l11 25zM1438 1346q0 -29 -18.5 -46.5t-47.5 -17.5q-47 0 -65 49q-23 57 -66 58 q-86 0 -147 -220l-86 -288h203l-17 -47h-198l-146 -478q-123 -399 -240.5 -597.5t-285.5 -198.5q-51 0 -81 25.5t-30 60.5q0 33 19.5 48t44.5 15q45 0 69 -65q14 -41 58 -41q92 0 188 317l275 914h-172l16 47h168q47 147 59 180q61 170 149.5 270.5t229.5 100.5 q53 0 87 -23.5t34 -62.5zM893 1346q0 -29 -18.5 -46.5t-47.5 -17.5q-47 0 -65 49q-23 57 -66 58q-86 0 -147 -220l-86 -288h203l-17 -47h-198l-146 -478q-123 -399 -240.5 -597.5t-285.5 -198.5q-51 0 -81 25.5t-30 60.5q0 33 19.5 48t44.5 15q45 0 69 -65q14 -41 58 -41 q92 0 188 317l275 914h-172l16 47h168q47 147 59 180q61 170 149.5 270.5t229.5 100.5q53 0 87 -23.5t34 -62.5z" />
</font>
</defs>
</svg>
